<svg xmlns="http://www.w3.org/2000/svg" version="1.1" width="600px" height="600px" viewBox="0 0 200 200" style="overflow:hidden!important;"><g id="svga-group-wrapper"><g id="svga-group-backs-single"><path id="SvgjsPath10956" d="M0 0h200v200H0V0z" fill="#ecf1f1" stroke-width="none" opacity="1" stroke="none"></path><path id="SvgjsPath10957" d="m156.3 131.2-16.8-.4-17 .6c-.7 0-8.8-.3-9.4-.2-9.8 1.2-14.9.6-20.8 0l-10.9-.1c-1.5 0-3.5-1.6-3.5-3.6l.1-5.6c1-5.5-.2-9.4-.2-14.7l.2-3.6c0-1.5 2.3-2.3 5.1-2.4l7.5.2c3.7-.1 9.6.8 12 .3l11-.5c3.8-.2 10.8-.8 20.5-.5 0 0 10.3 0 19.3.2l5.6-.1c1.5 0 3.2 1.2 3.2 2.7v5c-.1 3.3.1 5.9.1 10.1l.2 5.5-.4 3.4c-.1 2.5-3.8 4.1-5.8 3.7zm-43.4-33.4-16.8-.4-17 .6c-.7 0-8.8-.3-9.4-.2-9.8 1.2-14.9.6-20.8 0L38 97.7c-1.5 0-3.5-1.6-3.5-3.6v-5.6c1-5.5-.2-9.4-.2-14.7l.2-3.6c0-1.5 2.3-2.3 5.1-2.4l7.5.2c3.7-.1 9.6.8 12 .3l11-.5c3.8-.2 10.8-.8 20.5-.5 0 0 10.3 0 19.3.2l5.6-.1c1.5 0 3.2 1.2 3.2 2.7v5c-.1 3.3.1 5.9.1 10.1l.2 5.5-.4 3.4c0 2.5-3.6 4.1-5.7 3.7zm43.4-32.4-16.8-.4-17 .6c-.7 0-8.8-.3-9.4-.2-9.8 1.2-14.9.6-20.8 0l-10.9-.1c-1.5 0-3.5-1.6-3.5-3.6l.1-5.6c1-5.5-.2-9.4-.2-14.7l.2-3.6c0-1.5 2.3-2.3 5.1-2.4l7.5.2c3.7-.1 9.6.8 12 .3l11-.5c3.8-.2 10.8-.8 20.5-.5 0 0 10.3 0 19.3.2l5.6-.1c1.5 0 3.2 1.2 3.2 2.7v5c-.1 3.3.1 5.9.1 10.1l.2 5.5-.3 3.4c-.2 2.5-3.9 4.1-5.9 3.7zm-43.4-33.3-16.8-.4-17 .6c-.7 0-8.8-.3-9.4-.2-9.8 1.2-14.9.6-20.8 0L38 32c-1.5 0-3.5-1.6-3.5-3.6v-5.6c1-5.5-.2-9.4-.2-14.7l.2-3.6c0-1.5 2.3-2.3 5.1-2.4l7.5.2c3.7-.1 9.6.8 12 .3l11-.5c3.8-.2 10.8-.8 20.5-.5 0 0 10.3 0 19.3.2l5.6-.1c1.5 0 3.2 1.2 3.2 2.7v5c-.1 3.3.1 5.9.1 10.1l.2 5.5-.4 3.4c0 2.5-3.6 4-5.7 3.7zm43.4 166.2-16.8-.4-17 .6c-.7 0-8.8-.3-9.4-.2-9.8 1.2-14.9.6-20.8 0l-10.9-.1c-1.5 0-3.5-1.6-3.5-3.6l.1-5.6c1-5.5-.2-9.4-.2-14.7l.2-3.6c0-1.5 2.3-2.3 5.1-2.4l7.5.2c3.7-.1 9.6.8 12 .3l11-.5c3.8-.2 10.8-.8 20.5-.5 0 0 10.3 0 19.3.2l5.6-.1c1.5 0 3.2 1.2 3.2 2.7v5c-.1 3.3.1 5.9.1 10.1l.2 5.5-.4 3.4c-.1 2.5-3.8 4.1-5.8 3.7zM112.9 165l-16.8-.4-17 .6c-.7 0-8.8-.3-9.4-.2-9.8 1.2-14.9.6-20.8 0l-10.9-.1c-1.5 0-3.5-1.6-3.5-3.6v-5.6c1-5.5-.2-9.4-.2-14.7l.2-3.6c0-1.5 2.3-2.3 5.1-2.4l7.5.2c3.7-.1 9.6.8 12 .3l11-.4c3.8-.2 10.8-.8 20.5-.5 0 0 10.3 0 19.3.2l5.6-.1c1.5 0 3.2 1.2 3.2 2.7v5c-.1 3.3.1 5.9.1 10.1l.2 5.5-.4 3.4c0 2.4-3.6 4-5.7 3.6zM25.7 97.8c2.1.4 5.7-1.2 5.7-3.7l.4-3.4-.2-5.5c.1-4.2-.1-6.8-.1-10.1v-5c0-1.5-1.8-2.7-3.2-2.7l-5.6.1c-9-.2-19.3-.2-19.3-.2H.1v30.5l8.8-.3 16.8.3zm5.8 39.5c0-1.5-1.8-2.7-3.2-2.7l-5.6.1c-9-.2-19.3-.2-19.3-.2-1.2 0-2.2-.1-3.3-.1v30.5l8.8-.3 16.8.4c2.1.4 5.7-1.2 5.7-3.7l.4-3.4-.2-5.5c.1-4.2-.1-6.8-.1-10.1v-5zM14.9 35.9c-2.4.4-8.3-.4-12-.3L0 35.5v29.9l4.6.1c5.9.6 11 1.2 20.8 0 .7-.1 8.8.2 9.5.2l17-.6 16.8.4c2.1.4 5.7-1.2 5.7-3.7l.4-3.4-.2-5.5c.1-4.2-.1-6.8-.1-10.1v-5c0-1.5-1.8-2.7-3.2-2.7l-5.6.1c-9-.2-19.3-.2-19.3-.2-9.7-.3-16.7.3-20.5.5l-11 .4zm59.6 72.6v-5c0-1.5-1.8-2.7-3.2-2.7l-5.6.1c-9-.2-19.3-.2-19.3-.2-9.7-.3-16.7.3-20.5.5l-11 .5c-2.4.4-8.3-.4-12-.3l-2.9-.1v29.9l4.6.1c5.9.6 11 1.2 20.8 0 .7-.1 8.8.2 9.5.2l17-.6 16.8.4c2.1.4 5.7-1.2 5.7-3.7l.4-3.4-.2-5.5c0-4.2-.2-6.8-.1-10.2zm0 67.2v-5c0-1.5-1.8-2.7-3.2-2.7l-5.6.1c-9-.2-19.3-.2-19.3-.2-9.7-.3-16.7.3-20.5.5l-11 .5c-2.4.4-8.3-.4-12-.3l-2.9-.2v29.9l4.6.1c5.9.6 11 1.2 20.8 0 .7-.1 8.8.2 9.5.2l17-.6 16.8.4c2.1.4 5.7-1.2 5.7-3.7l.4-3.4-.2-5.5c0-4.2-.2-6.8-.1-10.1zM0 32l8.8-.3 16.8.4c2.1.4 5.7-1.2 5.7-3.7l.4-3.4-.2-5.5c.1-4.2-.1-6.8-.1-10.1v-5c0-1.5-1.8-2.7-3.2-2.7l-5.6.1c-9-.2-19.3-.2-19.3-.2-1.1 0-2.2-.1-3.3-.1V32zm169.4 33.3 10.9.1c5.7.6 10.4.6 19.7-.5V35.4l-9-.4c-2.4.4-7.8-.1-11.5 0l-8.4.4c-2.8 0-5.1.9-5.1 2.4l-.2 3.6c0 5.3-1 10.2.2 14.7l-.1 5.6c0 2 2 3.6 3.5 3.6zm0 65.8 10.9.1c5.7.6 10.4.5 19.7-.6v-29.5l-9.1-.4c-2.4.4-7.8-.1-11.5 0l-8.4.4c-2.8.1-5.1.9-5.1 2.4l-.2 3.6c0 5.3-1 10.2.2 14.7l-.1 5.6c.1 2 2.1 3.7 3.6 3.7zM122.1 22.7l-.1 5.6c0 2 2 3.6 3.5 3.6l10.9.1c5.9.6 11 1.2 20.8 0 .7-.1 8.8.2 9.4.2l17-.6 16.4.4V1.8h-2.6c-9-.2-19.3-.2-19.3-.2-9.7-.3-16.7.3-20.5.5l-11 .5c-2.4.4-8.3-.4-12-.3l-7.5-.3c-2.8 0-5.1.9-5.1 2.4l-.1 3.6c0 5.4 1.2 9.2.2 14.7zm0 65.8-.1 5.6c0 2 2 3.6 3.5 3.6l10.9.1c5.9.6 11 1.2 20.8 0 .7-.1 8.8.2 9.4.2l17-.6 16.4.3V67.5l-2.6.1c-9-.2-19.3-.2-19.3-.2-9.7-.3-16.7.3-20.5.5l-11 .5c-2.4.4-8.3-.4-12-.3l-7.5-.2c-2.8.1-5.1.9-5.1 2.4l-.2 3.6c.1 5.2 1.3 9.1.3 14.6zm77.9 79.8-9.1-.4c-2.4.4-7.8-.1-11.5 0l-8.4.4c-2.8.1-5.1.9-5.1 2.4l-.2 3.6c0 5.3-1 10.2.2 14.7l-.1 5.6c0 2 2 3.6 3.5 3.6l10.9.1c5.7.6 10.4.5 19.7-.6l.1-29.4zm-16.4-3.7 16.4.4v-30.3l-2.6.1c-9-.2-19.3-.2-19.3-.2-9.7-.3-16.7.3-20.5.5l-11 .5c-2.4.4-8.3-.4-12-.3l-7.5-.2c-2.8.1-5.1.9-5.1 2.4l-.2 3.6c0 5.3 1.2 9.2.2 14.7l-.1 5.6c0 2 2 3.6 3.5 3.6l10.9.1c5.9.6 11 1.2 20.8 0 .7-.1 8.8.2 9.4.2l17.1-.7z" fill="#c6e2e2" stroke-width="none" opacity="1" stroke="none"></path><path id="SvgjsPath10958" d="M34.5 22.7v5.6c0 2 2 3.6 3.5 3.6l10.9.1c5.9.6 11 1.2 20.8 0 .7-.1 8.8.2 9.4.2l17-.6 16.8.4c1.3.2 3.3-.3 4.5-1.4-.8 0-1.7-.3-2.6-.3-1.4 0-6.2-1.1-9.3-1.6-1.3-1.2-2.9-2-4.7-1.7-1.3.2-2.3.8-3.8 1-2.1.3-4.2-.1-6.3-.5-2.2-.4-4.2-.8-6.4-.8-.1 0-.1.1 0 .1 4.1.2 7.9 1.8 11.9 1.9 1.4 0 2.7-.5 4-.5.9 0 1.6.1 2.3.3-6.4 0-22.2.9-24.5 1.6-2.7.7-12.6.7-15.9-.7-3.4-1.5-20.3 0-21.7-.2-1.5-.2-1.7-2.7-1-7 .2-1.2.2-2.6.1-4.2.5.2.9.3 1.4.3 1.4 0 3-.9 4.2-1.5 2.2-1.1 4.4-2.2 6.5-3.5.1-.1 0-.2-.1-.2-2.5 1.3-5 2.4-7.7 3.2-1.3.4-2.7 1.1-4.1.5-.1 0-.2-.1-.3-.1-.3-4.1-1.2-8.7-1.5-10.9-.1-.7-.1-1.4 0-2 3.9-1.4 8.2 1 12.1 1.5 3.2.4 6.3.1 9.5-.4.2 0 .1-.3 0-.3-2.5.2-5 .4-7.6.1-2.7-.3-5.2-1.3-7.8-1.8-2-.4-3.9-.7-5.7 0 .1-.3.2-.6.3-.8-2.4.2-4.2 1-4.2 2.3L34.3 8c0 5.4 1.2 9.2.2 14.7zm71.2 39.6c-1.9-1-8.3.3-10.8 1-2.3.6-8.8-.6-11.6-1.8 2.3-.1 4.6-.5 6.4-1.7.1-.1.1-.4-.1-.4-2.6.3-4.9 1.1-7.5 1.3-1.5-1.7-1.2-7.2-.9-9.9.3-2.9-1.3-7.3-1.6-10.5-.2-1.8-.1-3.3.1-4.4-1.1.4-1.8 1-1.8 1.8l-.2 3.6c0 5.3 1.2 9.2.2 14.7l-.1 5.6c0 2 2 3.6 3.5 3.6l10.9.1c5.9.6 11 1.2 20.8 0 .7-.1 8.8.2 9.4.2l17-.6 16.8.4c1.5.3 3.8-.5 5-1.9h-.5c-2.2 0-3.5-1-5.4-1.6-.6-.2-2.2-.1-4.1.2-1.7-1.6-4.1-2.3-6.4-2-1.9.2-3.5 1.3-5.4 1.4-2 0-3.4-.7-5.4-.3-.1 0-.1.2 0 .2 2.5 0 4.9 1 7.3.4 3.4-.8 5.6-.9 8.6.4-3.7.6-8.1 1.4-9.6 1.2-2.6-.3-4.1.3-7 .3s-19.8-.3-22-.6c-2.1-.1-3.7.2-5.6-.7zm-1.2 33c-.4-.1-1.3-.1-2.5-.2.1-.5-.1-1.1-.5-1.4-.5-.4-1.6-.7-1.9.1-.1.2 0 .5.3.5s.7-.1 1-.1c.4.1.6.5.5.9-7.1-.1-22.9.5-25.5.5-3.1 0-16.7-.3-24.6.6s-12.5-2.3-13-3.4c-.1-.2-.2-.4-.2-.8 1.4-.4 2.9-.3 4.4-.2 2.1.1 4.2-.5 6.2-.3.8.1 1.4.6 2.2.4 1-.2 2-1.2 2.7-1.8 0 0 0-.1-.1-.1-1.3 1.1-1.8 1.5-3.4 1.2-.3-.1-.5-.5-.8-.5-2.2-.3-4.4.2-6.7-.1-1.7-.2-3.3-.3-4.7.2-.2-2.1-.2-5.2-.2-7.2 0-.4 0-.9-.1-1.4 2.9.4 5.8-2.4 8.7-2 .1 0 .1-.1 0-.2-1.7-.5-3.3.1-4.8.6 0-.1-.1-.2-.2-.2-1.4-.1-2.7 0-4-.3-.4-2.6-1.1-5.6-1.1-7.7 0-1.7-.6-2.8-1.3-3.5-.3.3-.5.7-.5 1.1l-.2 3.6c0 5.3 1.2 9.2.2 14.7v5.6c0 2 2 3.6 3.5 3.6l10.9.1c5.9.6 11 1.2 20.8 0 .7-.1 8.8.2 9.4.2l17-.6 16.8.4c1.6.3 4.1-.6 5.2-2.1-1.1.3-2.7.7-3.7.7-1.5.2-7.2-.4-9.8-.9zm13.8 34.8c-4.4-.3-7.3-.3-10.8-3.2-.1-.1-.3-.2-.4-.3 1-.2 2.1-.2 3.2.1 1 .3 1.9.8 3 .9 2.8.3 5.6-.5 8-1.7.4-.2.1-.8-.3-.7-1.8.4-3.5 1-5.4 1.2-2.2.3-3.5-.5-5.4-1.1.6.1 1.1.3 1.7.5.2.1.6-.2.3-.4-2.6-2.4-7.8-.6-10.8.1-5.4-.1-12.3 1.2-13.9 1.6-2.3.6-3.5.3-6.7-1.2s-.6-4.1 0-9.4c.1-.6.1-1 .1-1.4 3 2.9 7.2 4 11.3 3.1 2-.5 3.4-1.4 5.6-1.4 1.9 0 3.6.8 5.4 1.3 2.5.8 4.3 1.2 6.9.7.1 0 .1-.2 0-.2-4.6.5-8.4-2.5-12.9-2.6-1.8 0-3.4.7-5.2 1-4.2.8-7.8-.6-11-3.1-.1-2.4-1-2.3-1.9-5.1-.5-1.4-.9-2.9-1.2-4.2l-.1 2.4c0 5.3 1.2 9.2.2 14.7l-.1 5.6c0 2 2 3.6 3.5 3.6l10.9.1c5.9.6 11 1.2 20.8 0 .7-.1 8.8.2 9.4.2l17-.6 16.8.4c1.1.2 2.6-.2 3.8-.9-2-1.1-5.4-2.9-7.8-3.5-3.5-.9-6.7.6-11.4.9-4.7.5-18.2 2.9-22.6 2.6zm-14.1-4.4c1.1-.2 2.1-.4 3.2-.5-.6.2-1.1.5-1.7.8l-1.5-.3zm12.9 38.2c-.7-.1-1.4-.1-2-.1-1.5 0-3.5 0-6.5-.6-3.1-.6-9.4-.9-13.3-1.1s-16.3 1.5-18.5 1.3-6.1-.9-11.3-1.5c-5.2-.6-17.4.9-19.6 1.3-1.4.3-4-.3-5.8-1.7 1.2.1 2.4.1 3.6 0 .3 0 .4-.4.1-.5-1.4-.5-3.1-.5-4.6-.4-.4-.5-.7-1.1-.9-1.8-.6-3-.1-4.5 0-7.8 1.7 1.6 4.2 1.6 6.8 1.5 3.5-.1 5.9 1.2 8.9 2.3 2.9 1.1 5.7-.4 8.6.6.2.1.3-.3.1-.4-1.2-.4-1.6-.4-2.9-.4-2 0-3.6.6-5.6-.4-1.1-.5-2-1.6-3.1-2.2-3.8-1.9-10.2 1.4-12.9-2.9-.2-3.5-1.1-6.1-1.9-9.1-.4-1.6-.7-3.1-.6-4.3-.7.4-1.2.9-1.2 1.6l-.2 3.6c0 5.3 1.2 9.2.2 14.7v5.6c0 2 2 3.6 3.5 3.6l10.9.1c5.9.6 11 1.2 20.8 0 .7-.1 8.8.2 9.4.2l17-.6 16.8.4c1.2.3 2.9-.1 4.2-1zm39 32.9c-2.3-.2-9.7.5-14.4 0s-11.7-1.3-16.4-1.6-17.8.7-17.8.7-2.5-.4-6.5-.9-17.1.7-18.9-2c-1.1-1.6-.9-3-.6-4.7l1.2.6c1.1.4 2.2.4 3.3.5 1.7.2 3.2.7 4.8 1.2.2.1.4-.3.2-.4-1.3-1-2.5-1.5-4.2-1.8-1.7-.3-3.8-.2-5.2-1.2.2-.9.3-1.8.4-3 .1-1.1 0-2.1-.2-3.2.8.1 1.7.3 2.5.2.3 0 .3-.4.1-.5-.8-.2-1.8-.3-2.7-.4-.5-2.6-1.4-5.2-2.2-8.4-.3-1.3-.5-2.2-.6-2.9-.7.4-1.2.9-1.2 1.6l-.2 3.6c0 5.3 1.2 9.2.2 14.7l-.1 5.6c0 2 2 3.6 3.5 3.6l10.9.1c5.9.6 11 1.2 20.8 0 .7-.1 8.8.2 9.4.2l17-.6 16.8.4c1.4.2 3.6-.4 4.8-1.6-1.1 0-3 .4-4.7.2zm42.1-166.6c-1.7-1-7.7-.2-11.1 0s-16.7-.2-18.8 0-11.1-.7-14-1.2c-2.9-.5-14.2.2-17.6.7s-10.3-.7-10.5-2.7c-.2-1.9-.2-3.6.2-7.7.1-.5.1-1 .1-1.4.9.6 2.5.5 3.3.4 1-.1 1.9-.4 2.9-.6 3.3-.7 5.1-.1 8.2.6 5.6 1.4 11.2 1.5 17 1 .1 0 .1-.2 0-.2-6.5.2-12.2-.1-18.5-2.1-4.5-1.4-8.4.5-12.9-.4-.2-2.6-.9-4.5-1.3-7.2-.3-2.6 0-5.4.6-7.3-2.2.2-3.8 1-3.8 2.3l-.1 3.6c0 5.3 1.2 9.2.2 14.7l-.1 5.6c0 2 2 3.6 3.5 3.6l10.9.1c5.9.6 11 1.2 20.8 0 .7-.1 8.8.2 9.4.2l17-.6 16.4.3v-1.3c-.6.1-1.3-.1-1.8-.4zm-10.6 32.1c-1.9-.8-9.5-.2-13.2-.5.5-.1.9-.2 1.4-.3 1.2-.3 2.7-.7 3.5-1.6.1-.2.1-.5-.2-.5-1.2.1-2.2.8-3.3 1-1.3.3-2.6.4-3.8.7-1.7-.9-2.7-2.9-3.8-5.6-.9-2.1-.3-3.4.1-5 1.8-.1 3.7.6 5.5.5 2.7 0 5.2-.6 7.8.5.1 0 .1-.1.1-.1-2.4-1.3-4.8-.8-7.4-1-2.1-.1-3.9-.9-5.8-.8.1-.6.1-1.2.1-1.9-.3-3.2-1-8.6-.3-10.5.2-.6.2-1.2 0-1.7-1.4.4-2.3 1.1-2.3 2l-.2 3.6c0 5.3-1 10.2.2 14.7l-.1 5.6c0 2 2 3.6 3.5 3.6l10.9.1c5.7.9 10.4.9 19.7-.2v-2.8c-1.7 0-2.6.9-4.1 1.1-2 .3-6.1 0-8.3-.9zm7.6 32.4c0-.8-21.2.3-24.4 0s-4.5-.3-6.5-.8-26.9.8-30.6 1.4-7.7-1.4-8.5-3.1c-.8-1.5.3-5.4.3-8.7.3.2.6.4.9.5.6.2 1.3.3 2 .2 1.8-.2 3.4-1.3 5.2-1.4.1 0 .2-.2 0-.2-1.8-.2-3.4.3-5.1.6-1.2.2-2-.4-3-.8v-.1c-.3-3.4-1.1-7.1-2-9.9-.4-1.3-.7-2.4-1.1-3.2-.2.3-.4.6-.4 1l-.2 3.6c0 5.3 1.2 9.2.2 14.7l-.1 5.6c0 2 2 3.6 3.5 3.6l10.9.1c5.9.6 11 1.2 20.8 0 .7-.1 8.8.2 9.4.2l17-.6 16.3.3V96h-.3c-1.8.4-4.3-.4-4.3-1.3zm.2 32.3c-.8-.5-2.1-.2-2.7.5-.2.2-.1.3.1.4-6.8.5-14.9 1.5-16.2 1.3-2.1-.3-6.4-2.9-6.4-6.4v-.6c1.1.2 2.2.8 3.2.9.6.1 1.2.1 1.8-.1 1-.3 2-1.4 3.3-.8.2.1.4-.1.3-.3-1.1-1.9-3.4.1-4.9.1-1.4.1-2.6-.5-3.9-.6-.4-2.2-1.8-2.7-2.8-5.7-1.2-3.5.3-5 .3-9.1 0-2.2-.5-3.4-1.1-4.2-.3.3-.6.7-.6 1.1l-.2 3.6c0 5.3-1 10.2.2 14.7l-.1 5.6c0 2 2 3.6 3.5 3.6l10.9.1c5.7.6 10.4.5 19.7-.6v-3.1c-1 0-2.4 0-3.9.1 0-.1-.2-.3-.5-.5zm-2.1.9c.5-.1.9-.4 1.4-.4.2 0 .4.1.6.2-.7.1-1.3.1-2 .2zm-9.2 34.7c-.6-.2-2.6-.3-5-.4 0-.8 0-1.5-.1-2.2 0-.1-.2-.3-.3-.3-2.5-.5-5.9 0-7.9 1.6-.2.1 0 .4.2.3 1.5-.4 2.9-1 4.4-1.2.6-.1 1.5-.2 2.1 0 .5-.1.8.1 1 .7.1.4.1.7.2 1.1-5.7-.2-13.9-.1-15.4.2-.4.1-1.3.2-2.4.2-.8-.1-1.7-.1-2.4.1h-.1c-4.5.2-10.5.4-11.7.2-1.7-.2-2.6-.9-6.1-1.7s-12 .4-13.9 0-1.5-2.8-1.5-5.9c0-2.2.4-3.3.9-5 .6.5 1.4.8 2.1.9s1.7 0 2.5-.4c.4.1.8.2 1.2.2 1.9.1 3.9-.4 5.8-.3 2.7.1 5.3.6 8 .9.3 0 .4-.5.1-.5-3.3-1-6.8-1.7-10.2-1.5-2.8.1-3.9.7-6.7-1.1-.7-.4-1.3-1-2-1.5.2-2.9-1.5-4.5-2.1-6.6-.5-1.8-1.1-3.2-.8-5-1.1.4-1.9 1-1.9 1.9l-.2 3.6c0 5.3 1.2 9.2.2 14.7l-.1 5.6c0 2 2 3.6 3.5 3.6l10.9.1c5.9.6 11 1.2 20.8 0 .7-.1 8.8.2 9.4.2l17-.6 16.4.5v-1c-.7-.1-1.3-.3-1.8-.5-1.7-.9-12-.2-14.1-.9zm-57.5-14.4c.9.9 2 1.9 3.1 2.4-.5.1-1-.1-1.5-.2-.8-.2-1.3-.6-1.9-1.1.1-.2.2-.6.3-1.1zm66.4 47c-.7-.1-1.5-.1-2.2-.3-.9-.2-1.7-.6-2.4-1.2-.3-.3-.8.2-.5.5.2.2.5.4.8.6-3.2 0-6.9 1.2-9.5 1.3-1.5.1-3.3-.5-4.8-1.5.3-.1.6-.1.8-.2.3-.1.3-.6-.1-.6-.6 0-1.2 0-1.8.1-1.3-1.1-2.2-2.4-2.6-3.8-.7-3.4-1.4-2-2.5-6.1s-.5-4.3.2-9.4c.5-3.6-.4-4.3-1.4-5.4-.7.4-1.2.9-1.2 1.6l-.2 3.6c0 5.3-1 10.2.2 14.7l-.1 5.6c0 2 2 3.6 3.5 3.6l10.9.1c5.7.6 10.4.5 19.7-.6v-1.6c-2.6-.2-5-.4-6.8-.7.2-.2.2-.3 0-.3zM25.7 97.8c1 .2 2.3-.1 3.5-.7-1.7-.2-4-.7-6.2-1 0-.1-.1-.2-.2-.2-1.1-.6-1.7-.6-3-.6-2.6 0-4.3-1.3-6.5-2-3.1-1-6.4-.2-9.6-.1-.4 0-.5.6-.1.7 3.5.6 7-.7 10.3.9.5.3 1 .6 1.6.9-3.7.1-10 .3-15.5.5v1.6l8.8-.3 16.9.3zm-.3 33.4c.7-.1 8.8.2 9.4.2l17-.6 16.8.4c1.1.2 2.7-.2 3.9-1-1.5-.4-3.3-.9-3.9-1.1-.7-.2-4.4-1-7.7-1.2-1.2-1-2.6-1.4-4.5-1.4-4 .2-7.4-1.6-11.5-1.3-.3 0-.3.4 0 .4 1.8.2 3.6.2 5.3.7 1 .3 2.3 1 3.4 1.2 1.1.2 2.2-.1 3.3 0 .5 0 1.1.1 1.6.2-1 .1-1.9.3-2.5.7-2.6 1.8-4.7.3-8.8.3s-15.2-.6-15.2-.6-11.4.3-15.8.9c-1.1.1-2.8.2-4.8.3.3-.3.5-.6.8-.8 2.5-2.3 4.5-2.4 7.8-2.2 4.9.3 9-1.6 13.9-2.1.1 0 .1-.2 0-.2-2.7.2-5.2.6-7.8 1.3-3.2.9-6.2-.1-9.5-.1-4.3 0-3.9 1.6-6.2 4.1-3.4.1-7.3 0-10.5-.2v1.8l4.6.1c6 .8 11.1 1.4 20.9.2zm.3 33.8c1.2.2 2.9-.2 4.1-1.1-1.5-.2-4.2.3-5.5-.2-1.7-.6-5.2-.6-8.3-.2-2 .3-9.6-.1-16-.7v2.1l8.8-.3 16.9.4zm22.8 30.8c-.6-.1-1.5-.1-2.6-.2-.3-1.5-.9-3.2-2.2-3.6-.5-.2-.9.1-1.4.1-1 .1-1.9 0-2.8-.2-1.3-.3-2.5-.7-3.9-.6-.2 0-.2.3 0 .3 1.9.4 3.6 1.4 5.5 1.6.5.1 1.1-.1 1.5-.1 1.5.3 2.1 1.2 2.4 2.4-5.8-.4-15.4-.8-19.5-.8-5.1 0-20.8.3-25.4.3v3.2l4.6.1c5.9.6 11 1.2 20.8 0 .7-.1 8.8.2 9.5.2l17-.6 16.8.4c1.1.2 2.7-.2 3.9-.9-2-.1-4.8-.2-6.1-.2-2.2 0-14.3-1-18.1-1.4zM25.7 32.1c1.3.2 3.2-.3 4.5-1.3-1.4-.3-3.4-.6-4.8-.9-3.4-5.6-12.7-4-18.1-5.5-.1 0-.1.1-.1.1 2.5 1 5.1.9 7.7 1.5 2.8.6 7 1.3 9.1 3.6-2.3-.1-6.6.6-9.5-.3-2.1-.6-9.5-.6-14.5-.8V32l8.8-.3 16.9.4zm-.3 33.3c.7-.1 8.8.2 9.4.2l17-.6 16.8.4c.9.2 2 0 3.1-.5-2-.1-4.3-.6-5.9-.8-2.5-.3-7.3-1.3-10.8-1.9-.4-.1-1-.1-1.8-.1 1.1-.3 2.2-.2 3.4-.3.4 0 .5-.5.1-.7-1-.4-2.1-.3-3.1-.1-.5.1-1 .3-1.5.5-.3.2-.7.4-1 .6-6.5.3-17.9 1.7-19.9 2-2.5.3-18.5-.3-21.7-1.3-1.3-.4-3.7-.5-6.3-.7 4.4-1.9 9.8-.1 14.5-.3 4.2-.2 8.4-.8 12.4-2.2.2 0 .1-.3-.1-.2-6.9 1.7-13 1.8-20.1 1-3.2-.4-5.4-.3-8 1.6-.6.1-1.3 0-1.9 0v3.4l4.6.1c5.9.5 11 1.1 20.8-.1zM155.5 29c3.6-.9 6.7-1.5 10.4-.8 2.3.5 4.3 1 6.6.6.1 0 .1-.2 0-.2-3.4.4-6.6-1.2-9.9-1.4-2.5-.1-5 .2-7.3 1.4-.1.2 0 .5.2.4zM55.2 12c.9-.5 1.8-.7 2.8-.8.1 0 0-.1 0-.1-1 0-2 .3-2.9.8-.1 0 0 .1.1.1zm5.5-.8c1-.1 1.9-.1 2.9-.3.1 0 .1-.1 0-.1-1 0-1.9.2-2.9.3-.2-.1-.2.1 0 .1zm31.1 39.5c.5 0 .5-.8 0-.8-.9 0-2 .2-2.6.9-.2.2 0 .5.3.4.8 0 1.5-.4 2.3-.5zm-6.8 5c-.2 0-.3 0-.4.1-.2.1-.2.4 0 .5.1.1.2.1.4.1.4 0 .4-.6 0-.7zm36 1.7c.1 0 .1-.1.2-.1.1-.1.1-.2 0-.3-.1 0-.1-.1-.2-.1-.6-.5-.6.9 0 .5zm8.9 1.4c.1-.2-.1-.3-.3-.2-.2.1-.3.3-.6.1-.3-.2-.6.3-.3.5.5.1 1.1.1 1.2-.4zm26-6.9c.2-.1.2-.4 0-.5-.2-.1-.3-.1-.5-.1-.6-.1-.6.8 0 .7.2 0 .3 0 .5-.1zm28.2 7.5c.2-.1.2-.3 0-.4-.4-.1-.7-.1-1.1-.1-.4 0-.4.6 0 .6s.8 0 1.1-.1zm6.8.2c.1 0 .1-.2 0-.2-.7-.2-1.4-.1-2.1-.1-.3 0-.3.5 0 .5.7-.1 1.4 0 2.1-.2zM22.2 24c2.6.9 4.7-1.3 6.9-2.2.2-.1.1-.3-.1-.3-2.3.6-4.2 2.9-6.7 2.1-.3-.1-.4.3-.1.4zm5.8-8.4c.3 0 .3-.5 0-.5-.4-.1-.4.5 0 .5zm14.1 43.8c.2 0 .2-.4 0-.4-.3 0-.3.4 0 .4zm11.8-.5c.4-.2.9-.4 1.3-.6.1-.1 0-.2-.1-.2-.5.1-.9.3-1.3.5-.1.1-.1.4.1.3zm-14.8-9.5c-7-.4-14.1-.5-21.1-1.3-5.1-.5-7.7-1.6-12.3 1.1-.1.1 0 .2.1.2 4.7-2.6 10.4-.5 15.6-.4 5.9.1 11.8.4 17.7.6.2 0 .2-.2 0-.2zm15.3-5.2c-.6-.1-1.2-.1-1.9-.2-.4 0-.4.6 0 .6.6 0 1.3 0 1.9-.2.1 0 .1-.2 0-.2zm8.1 2.9c.2 0 .2-.3 0-.3s-.2.3 0 .3zM45 51.5c.2 0 .2-.2 0-.2s-.2.2 0 .2zm-17.6 1.4c.2 0 .2-.4 0-.4s-.2.4 0 .4zm28 29.3c.2 0 .2-.2 0-.2-1.1-.4-2.2-.6-3.4-.9-.3-.1-.4.4-.1.4 1.2.3 2.3.6 3.5.7zm18.7-.1c.2-.1.1-.4-.1-.4-.9-.1-1.8.2-2.6.4-.2.1-.2.5.1.4.8 0 1.7 0 2.6-.4zm11.4 1.6c.2 0 .2-.3 0-.3s-.3 0-.5-.1c-.3 0-.3.5 0 .5.2 0 .3-.1.5-.1zm20.9 6.9c-.3 0-.3.5 0 .5s.3-.5 0-.5zm-13.1 2.3c.3 0 .3-.5 0-.5-.5 0-1.1 0-1.6.1-.2 0-.2.3 0 .3.6.2 1.1.1 1.6.1zm44.6-10.4c-.3-.1-.4.4-.1.4.5.1.9.2 1.4.2.2 0 .2-.3.1-.4-.6 0-1-.1-1.4-.2zm-8.7 11.3c-.3 0-.3.5 0 .5.7 0 1.4.1 2.1-.1.2 0 .2-.3 0-.3-.7-.2-1.4-.2-2.1-.1zm22.9-3.2c-2.3-.1-4.5.1-6.6 1.1-.3.2-.1.8.2.6 4.9-2.1 10.3.2 15.3-.4.4 0 .5-.6.1-.7-2.8-.6-6-.5-9-.6zm20.5 2.7c1.2.1 2.4.4 3.6.6.2 0 .3-.2.1-.3-1.1-.6-2.5-.8-3.8-.8-.3-.1-.3.5.1.5zm20.9-6.7c.2 0 .2-.3 0-.3-1.2-.1-2.4-.3-3.6-.3-.2 0-.2.3 0 .3 1.1.2 2.4.2 3.6.3zm-9.4-.5H183c-.1 0-.1.1 0 .1h1.1c.1.1.1-.1 0-.1zm-10 0c-5.1.5-10.1 0-15.1-.5-.3 0-.3.4-.1.5 5 1.1 10.2 1 15.2.5.3-.1.3-.5 0-.5zm-157.2 3c-.2.1 0 .4.2.3.8-.4 1.6-.5 2.5-.5.1 0 .2-.2 0-.2-.9-.4-1.9-.1-2.7.4zm6.6-10.5c-.1 0-.1.2 0 .2 1.4-.1 2.8-.2 4.2-.1.2 0 .2-.3 0-.3-1.4-.1-2.9-.1-4.2.2zm-18 36.5c-.2 0-.2.3 0 .3 1.1 0 2.3 0 3.4-.1.1 0 .1-.2 0-.2-1.1-.1-2.3 0-3.4 0zm5.4 1.2c.3.9.8 1.9 1.6 2.4.1.1.1-.1.1-.1-.6-.7-1.2-1.4-1.5-2.4 0-.2-.3-.1-.2.1zm3.8 2c-.2.1 0 .4.2.3 3.7-1.7 6.9-2.4 10.9-2.6.2 0 .2-.3 0-.3-3.6-.5-7.9.6-11.1 2.6zm99.6.4c.1 0 .1-.1 0-.2h-.5c-.1 0-.1.2 0 .2h.5zm11.6 6.8c1-.3 2-.2 3.1-.2.2 0 .3-.3.1-.3-1-.5-2.3-.3-3.3.1-.4 0-.3.5.1.4zm8.8.9c.3 0 .3-.4 0-.4s-.3.4 0 .4zm3.6.2c.2 0 .2-.3 0-.3s-.2.3 0 .3zm2.6-13.8c3.1.3 5.9 1.8 9 .9.3-.1.3-.6-.1-.6-2.9.3-5.5-.6-8.3-.8-3-.2-5.9 1.2-8.9.5-.4-.1-.6.4-.3.6 3 1.9 5.5-.9 8.6-.6zm-15.7.5c-2.7.6-5.3.8-8 1-.2 0-.2.3 0 .3 2.7 0 5.5-.4 8.1-1 .2 0 .1-.4-.1-.3zm54.4 5.2c.2 0 .2-.3 0-.3s-.2.3 0 .3zm.6-3.8c-.3 0-.5.1-.8.1-.2 0-.2.3 0 .3.3 0 .5.1.8.1.3 0 .3-.5 0-.5zm-6.8 9.7c.4 0 .4-.6 0-.6s-.4.6 0 .6zm-1.9-5.2c-.2 0-.2.3 0 .3s.2-.3 0-.3zm11.6 4.2c.2 0 .2-.3 0-.3-.2-.1-.4-.1-.6-.1-.3 0-.3.5 0 .5.2 0 .4 0 .6-.1zm4.6 0c-.2 0-.2.3 0 .3s.2-.3 0-.3zm8.2 1.7c-.4 0-.4.6 0 .6.3 0 .3-.6 0-.6zM158.6 150c.6.1 1.3.2 1.9.2.2 0 .2-.3 0-.3-.6-.2-1.2-.3-1.9-.3-.2-.1-.2.4 0 .4zm7.7 1.1c.1-.1 0-.2-.1-.2-.5.2-1 .3-1.5.2-.2 0-.2.3 0 .3.6.1 1.2 0 1.6-.3zm3.9-.1c-.3 0-.3.5 0 .5s.3-.5 0-.5zm-103.7 2.1c.2-.1.3-.2.5-.4.1-.1 0-.3-.2-.3-.2.1-.4.1-.6.2-.2.1 0 .7.3.5zm8.5-1.9c-.4 0-.4.6 0 .6s.4-.6 0-.6zm26.7 37.5c-.3 0-.3.6 0 .5 1-.1 2.2-.1 3.2-.4.2-.1.2-.3-.1-.4-1 0-2.1.2-3.1.3zm18.5 5.3c-.2.1-.2.4 0 .4.2.1.4.1.6.1.3 0 .3-.6 0-.5-.2-.1-.4-.1-.6 0zm6.1-.2c.2 0 .2-.3 0-.3-.5-.1-1-.1-1.6-.1-.3 0-.3.4 0 .4.5.1 1.1.1 1.6 0zm8.6-.2c-.3 0-.3.5 0 .5s.3-.5 0-.5zm46.7 1.6c.8-.2 1.8-.2 2.4-.7.1-.1 0-.2-.1-.2-.8-.2-1.7.2-2.5.4-.4 0-.2.6.2.5zm-161.5-5.3c-.1 0-.1.2 0 .2 3-.8 6.1-.4 8.8 1.1.2.1.4-.2.2-.3-2.8-1.7-5.9-2.1-9-1zm-15-5.2c-.4-.1-.6.6-.2.6 2.9.7 6.1.8 8.9-.5.3-.1.1-.6-.2-.5-3 .5-5.6.9-8.5.4zm25.5-7.2c-.5 0-1.1.1-1.6.2-.2.1-.1.4.1.4l1.5-.3c.2 0 .2-.3 0-.3zm13 1.4c-.2.1-.1.4.1.4 1.8-.4 3.5-.9 5.2-1.7.1-.1 0-.2-.1-.2-1.7.4-3.4 1-5.2 1.5zm11.1-1.9c-.9-.1-1.8-.1-2.7-.1-.3 0-.3.4 0 .4.9 0 1.8.1 2.7-.1.1.1.1-.1 0-.2zm4.9-.3h.3c.1 0 .1-.1 0-.1h-.3c-.1 0-.1.1 0 .1zm4.2 5.7c.3 0 .3-.4 0-.4-.3-.1-.3.4 0 .4zm-10 6.6c.1 0 .1-.1 0 0 0-.1 0 0 0 0zm-24.3-8.7c.3 0 .3-.5 0-.5s-.3.5 0 .5zm-13.3-24.6c.3 0 .3-.5 0-.5s-.3.5 0 .5zm1.8-.5c.3 0 .3-.5 0-.5s-.3.5 0 .5zm-7.6 3.4c.3 0 .3-.5 0-.5s-.3.5 0 .5zm10.4-9.7c.1 0 .1-.1.2-.1.1-.1.1-.2 0-.3-.1-.1-.1-.1-.2-.1-.6-.3-.6.8 0 .5z" fill="#a4d2d2" stroke-width="none" opacity="1" stroke="none"></path><path id="SvgjsPath10959" d="M65.5 71.8c-3.3-1.8-5.6-.7-9.1-.7-4.1 0-8-.9-12.2-.2-.2 0-.2.4 0 .4 2-.2 3.9-.4 5.9-.2 1.9.2 3.7 1.1 5.5 1.3 3.4.3 6.2-1.4 9.7-.4.2 0 .3-.2.2-.2zm21.3-1.4c-5.7.6-11.2 1.2-16.9 1.2-.2 0-.2.2 0 .2 5.6.1 11.4-.2 16.9-1.3.1 0 .1-.1 0-.1zm12.6-1.2c-1.6-.6-3.3-.4-4.8.2-.1 0 0 .1 0 .1 1.6-.6 3.1-.5 4.8-.1 0 0 .1-.1 0-.2zm14.3 1.3c-1.4-.9-3.1-.8-4.7-.7-.2 0-.2.4 0 .4 1.2 0 2.5 0 3.6.4 1.3.5 1.8 1.4 2.2 2.6.1.2.3.2.4 0 .2-1.1-.6-2.1-1.5-2.7zm3.2 7.7c0-.2-.3-.2-.3 0v1.2c0 .1.2.1.3 0 .1-.4 0-.8 0-1.2zm-8.3 24.7c-5.5-.5-11.1-.2-16.6-.1-3.7.1-8.1-.6-11.5.9-.2.1-.1.5.2.4 4.1-1.7 9.9-.5 14.3-.5 4.6 0 9.2.2 13.7-.2.2.1.2-.5-.1-.5zm50.3 1.4c-6.2-1.2-12.6-1.3-18.9-1.6-7.2-.3-14.4-.7-21.6.1-.2 0-.2.4 0 .3 6.9-.6 13.7-.7 20.6-.2 6.6.5 13.1 1.8 19.8 1.7.2.1.3-.2.1-.3zm1.3 2.8s0 .1 0 0c.1.1.1 0 0 0zm.2 0c0-.1-.1-.1-.1 0 .1 4-.3 8.1-.2 12.1 0 .1.1.1.2 0 .5-3.9.3-8.1.1-12.1zm35.6-4c-2.5 0-5.1.3-7.6.1-1.9-.2-3.8-1-5.7-1.1-3.9-.2-7.3.5-11.2-.2-.4-.1-.5.5-.2.6 4.4 1.3 9.1 1 13.6 1.3 3.6.2 7.4-.1 11-.3.3-.1.3-.4.1-.4zm-36-33.2c-6.2.2-12.5.6-18.7.1-4.8-.4-10.2-2.5-14.9-.8-.2.1-.1.4.1.3 4.9-1.5 11.5 1.3 16.7 1.6 5.6.3 11.3-.2 16.8-.9.1 0 .2-.3 0-.3zm31.7-32.4c-3.1-2-7.1-.2-10.6-.6-3.8-.4-7.1-1-11 0-.3.1-.2.5.1.5 3.8-.6 7.1 0 10.8.5 3.4.4 7.4-1.2 10.6 0 .2 0 .3-.3.1-.4zm-76.6-.3c-11 1.4-21.9-.6-32.9 0-.3 0-.3.5 0 .5 11 .2 22.2 2.4 33-.2.1 0 .1-.3-.1-.3zm40.1-.3c-7.5.5-14.8-1.3-22.4-.2-.2 0-.1.3 0 .3 5.1-.6 9.4-.2 14.4.5 2.4.3 11.8-.5 11.9 2.8 0 .3.4.4.5.1.8-3.1-1.8-3.6-4.4-3.5zM115 5.1c-3.9-2.9-9.1 1-13.3 0-.2 0-.3.2-.1.3 2.8 1.2 5 .4 7.9-.1 3.1-.5 5.8.2 6.7 3.6.6 2.2.5 4.8.7 7 0 .3.5.3.5 0-.2-3.3.6-8.6-2.4-10.8zm-21.7-.9c-3.8 0-7.7-.1-11.5-.2-.2 0-.2.2 0 .2 3.9.3 7.7.2 11.6.1.1.1.1-.1-.1-.1zm-35.6 23c-2.4-.5-4.8-.6-7.2-.5-1.6.1-10.7 2.2-9.6-1.8.1-.2-.3-.4-.4-.2-1 1.9.5 3.5 2.4 3.8 1.5.2 3-.4 4.5-.6 3.4-.6 6.8-.6 10.3-.5.1.2.1-.1 0-.2zm2.8.4c-.4 0-.4.6 0 .6s.4-.6 0-.6zm7.3 1.4c-2-.5-4.1-.8-6.1-1-.1 0-.2.2 0 .2 2 .5 4 1 6.1 1.1.1.1.2-.2 0-.3zm63.5-.8c-1.1-.2-2.4-.1-3.2-.9-1-1-.6-2.4-.3-3.5.3-1.3.6-2.6-.1-3.9-.1-.2-.5 0-.4.2 1 2.2-1.2 4.5-.4 6.7.6 1.7 2.7 2.2 4.3 2 .3 0 .5-.5.1-.6zm13-8.5c-2.5-.4-5.1-1.4-7.6-1.6-2.8-.2-7.1 2.3-9.5.5-.2-.1-.4.2-.2.3 1.6 1.4 3.2.8 5 .3 4.5-1.3 7.9.5 12.3.7.1.1.1-.1 0-.2zM126.6 3.6c0-.2-.3-.4-.4-.1-.5 2.6-.5 5.1.3 7.6.1.2.3.1.3-.1-.4-2.5-.6-4.9-.2-7.4zm-96.9.9c-2.5-2-5.2-1.5-8.2-1.3-4.8.5-9.4.3-14.1-.2-.1 0-.2.2 0 .3 3.4.7 6.7 1.1 10.2 1.1 4.1 0 7.9-.9 11.9.6.2 0 .4-.3.2-.5zm.5 6.1c-.1-1.5.1-3.1-1-4.2-.1-.2-.4.1-.2.2 1.2 1.6.8 4.7.9 6.6.1 1.8.1 3.6.3 5.3 0 .1.2.1.2 0 .2-2.6-.1-5.3-.2-7.9zm.3 14.7c0-.2-.4-.2-.4 0 .1 1 0 1.9-.1 2.9 0 .1.2.1.2 0 .4-.9.4-1.9.3-2.9zm42.9 16.2c-.1-2.2-1-4.1-3.4-3.6-.2 0-.1.3 0 .3 3.9 1.1 2 9.4 2.2 12.2.2 2.7.7 5.1 1.7 7.5.1.1.2 0 .2-.1-2.1-5.5-.5-10.7-.7-16.3zm-4.7-3.8c-2.1.1-4.2 0-6.3-.1-.2 0-.2.3 0 .3 2.1.4 4.2.3 6.3 0 .2 0 .2-.2 0-.2zm-35.4-1.3c-3.4-.8-6.8-.3-10.3 0-4.2.3-8.4.6-12.5 1.2-.2 0-.2.3 0 .3 7.3-.2 15.5-2.6 22.7-1.1.3 0 .4-.4.1-.4zM17.7 46.7c-2.9 1.2-5.8-1.1-8.7-.3-.1 0-.1.2.1.2 2.9-.8 6 1.9 8.8.3.1-.1 0-.3-.2-.2zm6.9 22.8c-6.8.3-12.3 1.3-18.9-1.2-.2-.1-.4.3-.2.4 2.8 1.2 5.7 2 8.8 2.3 2.7.2 13.1-1.7 14.4 1.7.1.2.5.2.5-.1 0-2.7-2.2-3.2-4.6-3.1zm5.9 9.9c0-.3-.4-.3-.4 0 0 1-.1 2.1 0 3.1 0 .2.3.2.3 0 .2-1 .1-2.1.1-3.1zM53.4 104c-6.5-1.7-13.3-1.4-19.9-1.4-.2 0-.2.2 0 .2 6.7 0 13.2.4 19.8 1.5.2.1.3-.2.1-.3zm.8 24.2c-7.7.5-15.5-1.1-23.2-1.3-.2 0-.2.3 0 .3 7.3 1 16 2.8 23.3 1.3.1-.1.1-.3-.1-.3zm18.1-19.3c.2-2.2 1.1-4.8-1.7-5.3-.3-.1-.5.3-.2.5 2.3 1.5.9 8.9 1.2 11.5.3 3.4.9 6.7 1.6 10.1 0 .1.2.1.2 0-.8-5.6-1.6-11.2-1.1-16.8zm33.3 8.2c-3.7-3.4-7.5-3.4-12-1.8-.3.1-.2.6.1.4 2.2-.7 4.4-1.5 6.7-1 1.8.4 3.3 1.7 5 2.5.2.2.3 0 .2-.1zm15.3 4.2c-.5-1-1.6-1.2-2.6-1-.7.2-1.4.6-2 .9-1.4.7-2.6 1.1-4.2 1.2-.3 0-.3.5 0 .5 1.2 0 2.3-.2 3.4-.7 1.7-.7 3.3-2.2 5-.6.3.2.5 0 .4-.3zm37.4 15.8c-5.6-.4-10.5 2.8-16 1.9-5.4-.9-10.6-1.9-16.1-2.4-.3 0-.3.4-.1.5 6 .9 12.1 2.9 18.1 3.4 1.3.1 2.4-.1 3.6-.4 3.6-1.1 6.5-2.1 10.4-2.3.5-.2.5-.7.1-.7zm30.4-1.4c-6.1 0-13.7-.4-19.6 1.5-.2.1-.1.4.1.4 6.1-1.9 13.2-1 19.5-1.6.2 0 .2-.3 0-.3zm-61.1 24.5c-.8 0-1.2-.3-1.2-.9 0-.3-.1-.5-.1-.8-.1-.4-.1-.9-.1-1.3-.1-.9-.1-1.8-.1-2.7 0-.2-.3-.2-.3 0-.1 1.2-.1 2.4 0 3.6.1.7 0 1.8.5 2.4.4.6 1.5.7 1.6-.2-.1-.1-.2-.2-.3-.1zm36.7-.8c-2.9.3-5.8 1-8.6 1.5-3.6.7-6.6.3-10.2-.2-.2 0-.4.3-.1.4 2.5.4 5.1 1.1 7.6.9 3.7-.3 7.7-1.2 11.3-2.2.3-.1.3-.4 0-.4zm-94.1-22.8c-5.6-.1-10.8 1.8-16.3.2-4.9-1.4-9.8-1-14.8-.6-.1 0-.1.2 0 .2 3.2-.1 6.5-.4 9.7-.2 3.1.2 5.3 1.9 8.2 2.4 3.9.7 9.5-.6 13.3-1.6.2 0 .1-.4-.1-.4zm45.6 0c-6.7-.7-13.4-.6-20.1-1-6.1-.3-11.6.9-17.6 1-.2 0-.2.3 0 .3 5.9-.1 11.6-1.2 17.6-.8 6.7.4 13.4 1.2 20.1 1.3.5 0 .5-.7 0-.8zm1.7 10c-.1-.2-.3-.3-.4-.5-.4-.8-.3-1.4-.1-2.3.4-1.8.5-3.2-.5-4.9-.2-.3-.6 0-.5.3.6 1.1.8 2.4.4 3.6-.2.7-.8 1.4-.9 2.1-.1 1.2 1.4 1.7 1.3 3 0 .3.3.3.5.1.4-.5.4-.8.2-1.4zm.2 4.5c0-.3-.4-.3-.4 0 0 1.1-.1 2.3.1 3.4 0 .2.3.2.3 0 .1-1.1 0-2.3 0-3.4zM61 153.5c-2.8-.3-2.3-.8-4.9-2.9-.2-.2-.5-.8-.8-1.1-3.4-2.8-13 2.4-15.5-1.7-.1-.2-.4 0-.3.2 2.5 4.9 10-.1 14.1 2 2.1 1.1 1 2.4 2.7 3.5 1.2.8 3.5.4 4.8.3.1 0 .1-.3-.1-.3zm10.1 1.6c-1.6-.1-3.2.1-4.8.2-.3 0-.3.4 0 .4 1.6-.1 3.3-.1 4.8-.4.2-.1.1-.2 0-.2zm21.3-8.7c-1.6-.2-3.2-.1-4.8-.1-.3 0-.3.4 0 .4 1.6 0 3.2.1 4.8-.1.2 0 .2-.2 0-.2zm-69.7-8.8c-3.3-1.1-6.2-.6-9.6-.4-4 .2-7.8-.3-11.6-1.6-.2-.1-.4.3-.2.4 7.1 3.1 13.8 1.5 21.3 2 .2 0 .3-.3.1-.4zm4.3-.1c-.2 0-.3.4-.1.4 1.4.2 2.3 1.4 2.5 2.8 0 .1.2.1.2 0 .4-1.6-1.1-3.1-2.6-3.2zm3.2 6.8c0-.2-.3-.2-.3 0-.1 1.5-.4 3.2-.1 4.6 0 .2.4.2.4 0 .4-1.4.1-3.1 0-4.6zM71.8 173c-.1-.4-.6-.3-.6.1-.3 4.4.1 8.9.2 13.3 0 1.7.7 4.8.1 6.4-1.2 3.1-4.3 2.6-6.8 2.8-.2 0-.2.3 0 .3 4-.1 7.5 1.2 7.8-3.1.3-6.4.4-13.6-.7-19.8zm-.8-3.6c-2.5-.7-5.3 0-7.8.2-2.8.3-5.5.6-8.3 1.1-.2.1-.2.4.1.4 5.3-.1 10.7-1.4 16-1.3.2.1.2-.3 0-.4zm-24.1.2c-5.4-.9-11-1.3-16.4-.8-6.1.6-11.8 2.4-18 2.3-.2 0-.2.2 0 .3 4.8.5 9.5-.5 14.3-1.2 6.8-1 13.2-1.1 20-.2.2 0 .3-.4.1-.4zm6.6 10.5c-1.9.2-3.7.6-5.6.9-.2.1-.1.4.1.4 1.8-.3 3.7-.6 5.5-1.1.2 0 .1-.2 0-.2zm39.2 9.6c-1.6-2.5-5-3.6-7.9-2.8-.3.1-.2.5.1.5 2.9-.4 5.3.5 7.4 2.5.3.1.5 0 .4-.2zm11.5 1.7c-1.4-.1-3 .3-4.4.5-.3 0-.2.6.1.5 1.4-.2 3-.2 4.4-.7.1 0 .1-.3-.1-.3zm7.2-.3c-.2.1-.5.1-.7.2-.2.1-.1.3.1.3.2-.1.5-.2.7-.3.1-.1 0-.3-.1-.2zm17.1-4c-1.3-.9-3-1-4.5-.7-.3.1-.2.6.1.5 1.5-.3 2.9-.1 4.3.4.1.1.2-.1.1-.2zm7.3 1.6c-.7 0-1.4 0-2.2-.1-.2 0-.2.3 0 .3.7 0 1.4 0 2.2-.1.2 0 .2-.1 0-.1zm8 .4c-.6.1-1 .2-1.6.1-.3-.1-.5.4-.1.5.6.1 1.3.1 1.9-.2.1-.2 0-.4-.2-.4zm5.1-8.1c-.3 0-.3.5 0 .5s.3-.5 0-.5zm-64.4-10.8c-1.1-.8-2.4-.9-3.8-.7-.3 0-.2.4.1.4 1.2-.2 2.4.1 3.6.5.1.1.2-.1.1-.2zm48-.1c-2.8-.9-5.2-.4-8.1.1-4.4.8-8.4.6-12.8.7-3.3.1-6.4 1.4-9.8 1.3-3.3-.1-6.2-.9-9.5-.3-.2 0-.1.3 0 .3 3.2-.2 6.2.6 9.4.8 3.2.2 5.8-.9 8.9-1.1 3.6-.3 7.1.4 10.7-.1 3.7-.6 7-1.6 10.9-1 .6.2.8-.5.3-.7zm25.4-.2c-3.6-.9-7-.3-10.6 0-3.2.3-6.3-.8-9.3.4-.2.1-.1.5.1.4 3.2-.8 6.5.2 9.8.1 3.3-.2 6.6-.1 9.9 0 .4-.1.5-.7.1-.9zm1 1.6c-.2-.2-.5.1-.4.3.4.5.6 1 .8 1.5.2.5.2 1 .3 1.6.1.2.4.2.4 0 .3-1.3-.3-2.6-1.1-3.4zm10.8-.5c-.5 2.7-.8 5.4-.2 8.1 0 .2.4.2.4-.1.1-2.7 0-5.3.4-7.9 0-.2-.5-.4-.6-.1zm.5 11.7c0-.3-.4-.3-.4 0-.1 1 .3 1.9.8 2.7.7 1.2 1.2 2 1.2 3.4 0 .2.2.2.3.1 1.3-2-1.9-4.2-1.9-6.2zm20-12.2c-3.4-.3-6.8 0-10.3-.6-.3-.1-.4.4-.1.5 3.4.6 7.1 1.4 10.5.8.4 0 .2-.6-.1-.7z" fill="#ecf1f1" stroke-width="none" opacity="1" stroke="none"></path></g><g id="svga-group-humanwrap-move" transform="matrix(1,0,0,1,0,0)"><g id="svga-group-humanwrap"><g id="svga-group-hair-back-move" transform="matrix(1,0,0,1,0,0)"><g id="svga-group-hair-back"><path id="SvgjsPath11238" d="M134.2 50.7s5.7 1.1 10.5 12 2.8 23.4 2.2 32.1-2 36-10.9 49.8-13.1 14.6-23.4 18.4c-10.3 3.7-36.5 2.6-47.6-7.4-11.1-10.1-6.5-26.9-3.7-33 2.8-6.2 72.9-71.9 72.9-71.9" fill="#221b23" stroke-width="none" opacity="1" stroke="none"></path><path id="SvgjsPath11239" d="M71.2 121.7s-2.8 7.1-3.4 12c-.6 4.9 2.6 9.5 4.5 12.1 2.1 2.8 6 7.6 6.1 17.2.1 6 41.6-5.5 41.6-5.5 3.7-2.9 11.1-9.6 15.6-20.9 3.8-9.5 3.8-17.8 3.5-22.4-17.2 6.2-34.5 12.5-51.7 18.7l-2.8-4.3-13.4-6.9z" fill="#1b141c" stroke-width="none" opacity="1" stroke="none"></path></g></g><g id="svga-group-humanbody-back"><path id="SvgjsPath11036" d="m168.5 219.5-1.7-21.5s.7-9-8.8-15.3-23.4-10.1-29.5-14.2c-6.1-4.1-9.2-4.5-9-16.9s.9-40.3.9-40.3H79.6s.7 27.9.9 40.3c.2 12.4-2.9 12.8-9 16.9-6.1 4.1-20 7.9-29.5 14.2S33.2 198 33.2 198l-1.6 21.5h136.9z" fill="#f3d4cf" stroke-width="none" opacity="1" stroke="none"></path></g><g id="svga-group-chinshadow-single"><path id="SvgjsPath11032" d="M94.6 167.9c2.4 0 2.8-.8 5.4-.8 2.7.1 3 .8 5.4.8 3.37 0 10.14-7.78 14.28-11-.15-1.48-.21-3.22-.18-5.3.2-12.4.9-40.3.9-40.3H79.6s.7 27.9.9 40.3c.03 2.08-.03 3.81-.18 5.29 4.14 3.14 10.91 11.01 14.28 11.01z" fill="#d4958a" stroke-width="none" opacity="0.65" stroke="none"></path></g><g id="svga-group-humanbody-front"><path id="SvgjsPath11037" d="M73.8 175.9c5.1 2.9 11.8 5.2 17.6 5.7.4 0 .4-.6.1-.7-2.8-1.1-5.9-1.7-8.8-2.6-2.9-.9-5.8-2-8.8-2.7-.1-.1-.3.2-.1.3zm35.2 6.2c5.3-.6 11.3-3 15.9-5.8.3-.2.1-.6-.2-.5-2.6.9-5.2 2-7.8 2.9-2.6.9-5.4 1.5-8 2.5-.5.1-.5.9.1.9z" fill="#d4958a" stroke-width="none" opacity="1" stroke="none"></path><path id="SvgjsPath11038" d="m168.4 219.4-2.1-21.4c0-2.2-.5-4.5-1.5-6.6-.9-2.1-2.3-3.9-3.9-5.5s-3.5-2.8-5.5-4c-2-1.2-4.1-2.2-6.2-3.1-4.2-1.9-8.6-3.6-12.9-5.4-2.2-.9-4.3-1.9-6.4-3-1.1-.6-2.1-1.2-3-1.9-1-.6-2-1.2-3-1.9s-2-1.5-2.8-2.6c-.8-1-1.3-2.2-1.7-3.4-.7-2.4-.8-4.8-.8-7.2 0-4.7.2-9.4.3-14.1.2-9.4.6-18.7.9-28l.6.6-20.4-.2-20.4-.1.3-.3.7 28c.1 4.7.3 9.3.4 14 0 2.4-.1 4.7-.8 7.1-.3 1.2-.9 2.3-1.6 3.3-.8 1-1.7 1.8-2.7 2.5s-2 1.3-2.9 2c-.9.6-1.9 1.3-3 1.9-2.1 1.2-4.2 2.1-6.4 3.1-4.3 1.9-8.6 3.6-12.8 5.6-2.1 1-4.2 2.1-6.1 3.2-2 1.2-3.8 2.4-5.4 4-1.6 1.6-2.9 3.4-3.8 5.4-.4 1-.8 2.1-1 3.1-.2 1.1-.4 2.2-.3 3.2v.2l-1.5 21.5-1-1.1 34 .1c11.3 0 22.7.1 34.1.2l34.2.3 34.4.5zm.2.2-34 .4-34.2.3c-11.4.1-22.9.2-34.4.2l-34.4.1h-1.1l.1-1.1 1.7-21.5v.1c-.1-5.1 2.2-9.8 5.7-13.3 1.7-1.7 3.8-3.1 5.8-4.3 2-1.2 4.2-2.2 6.3-3.2 4.3-2 8.7-3.7 13-5.4 2.1-.9 4.3-1.8 6.3-2.9 1-.5 1.9-1.1 3-1.8 1-.6 2-1.2 2.9-1.9.9-.6 1.8-1.4 2.4-2.2.7-.9 1.2-1.9 1.5-2.9.6-2.1.8-4.5.8-6.8 0-4.6-.1-9.3-.2-14l-.6-28v-.3h.3l20.4-.1 20.4-.2h.6v.6c-.1 9.3-.2 18.7-.4 28-.1 4.7-.2 9.4-.2 14 .1 2.3.2 4.6.8 6.7.3 1.1.8 2 1.4 2.9.6.8 1.4 1.6 2.4 2.2.9.6 1.9 1.3 2.9 1.9 1 .7 1.9 1.3 2.9 1.8 2 1.1 4.1 2.1 6.3 3 4.3 1.8 8.6 3.6 12.9 5.6 2.1 1 4.2 2.1 6.2 3.3 2 1.2 4 2.6 5.7 4.3 3.4 3.4 5.6 8.1 5.4 13v-.1l1.4 21.6zm-112.8-.4 1.9-13.8.1 13.8h-2zm88.6 0-1.9-13.8-.1 13.8h2z" fill="#c5796d" stroke-width="none" opacity="1" stroke="none"></path></g><g id="svga-group-clothes-single"><path id="SvgjsPath11189" d="M27.5 220c-1.4-8.2 1.3-23.2 1.8-26s3.9-6.8 3.9-6.8 1.2-2.6 5.1-6c4-3.5 15.4-6.4 15.9-7.6.5-1.2 2.7-2.3 2.7-2.3-1-4.2 2.1-7.8 3.6-11.4 1.5-3.6 4.9-5.6 4.9-5.6 3.7-6.2 12.5-7 12.5-7s.6 5.3.6 7.8-.1 6.1-.8 7.7-.8 2.3-.8 2.3.2 3.2 5.8 7.4 7.2 6.9 12.5 9.2c3.7 1.7 6.7 5.2 6.7 5.2s0-2.6 3.1-5.2c4.5-3.8 6.9-5 12.5-9.2s5.8-7.4 5.8-7.4-.1-1-.5-2.7c-.4-2-.3-4.4-.3-6.9s.8-8.4.8-8.4 7.7 1 11.4 7.2c0 0 3.3 2.1 4.9 5.6s4.6 7.2 3.6 11.4c0 0 2.2 1.2 2.7 2.3.5 1.2 11.9 4.1 15.9 7.6s5.1 6 5.1 6 3.3 4 3.9 6.8c.5 2.8 3.2 17.8 1.8 26" fill="#c50909" stroke-width="none" opacity="1" stroke="none"></path><path id="SvgjsPath11190" d="M173.2 211.5c-.1-2.9-.2-5.7-.6-8.5s-.7-5.6-1.1-8.5c-.1-.7-.3-1.5-.6-2.2-.3-.7-.6-1.4-1-2-.7-1.2-1.5-2.4-2.4-3.5-.6-1.2-1.3-2.1-2.1-3.1s-1.7-1.9-2.6-2.7c-.9-.9-2-1.6-3.1-2.2-1.1-.6-2.2-1.1-3.4-1.6-2.3-1-4.6-1.9-6.8-2.8-.6-.2-1.1-.4-1.7-.7-.3-.1-.5-.2-.8-.4-.1-.1-.2-.1-.3-.2 0 0-.1 0-.1-.1l-.1-.1c-.1-.1-.1-.2-.2-.3-.1-.2-.2-.3-.4-.5-.3-.3-.5-.5-.8-.7-.3-.3-.7-.5-1-.7.2-1.6 0-3.3-.6-4.7-.6-1.7-1.4-3.1-2.2-4.6-.4-.7-.7-1.4-1.1-2.2-.4-.8-.8-1.6-1.4-2.3-1-1.4-2.2-2.5-3.6-3.5-1.3-2.1-3.1-3.8-5.1-5-1.1-.6-2.2-1.1-3.3-1.6-1.2-.4-2.3-.7-3.6-.9-.5-.1-2.9-.2-2.9-.2-1.5 11 1.8 18.5 1.9 19.2 0 .1-.1.4-.2.6v.1l-.3.6v.1c0 .1 0 .1-.1.2-.3.5-.6.9-.9 1.4-.7 1-1.6 1.9-2.6 2.7-.1.1-.3.2-.4.3-.2.2-.5.4-.7.6-.7.5-1.5 1.1-2.2 1.6-.9.7-1.8 1.4-2.8 2.2 0 0-.1 0-.1.1-2.1 1.5-4.3 3-6.3 4.7-1.7 1.4-3.7 3.1-4.3 5.6-1.8-1.8-3.8-3.3-6.1-4.4-2.6-1.1-4.9-2.6-7-4.5-1.1-.9-2.1-1.9-3.2-2.8-1.1-.9-2.2-1.8-3.3-2.6-1.1-.9-2.1-1.8-3-2.9-.3-.4-.6-.8-.8-1.2-.2-.4-.2-.8-.3-1.2-.1-.4-.2-.9-.2-1.2v-.1l-.1-.2c-.1-.1-.1-.3-.2-.5.1-.4.3-.8.5-1.1 2.3-1.9 2.5-9.2 2.4-10.8-.1-1.5-.2-5.8-.2-5.8-1.3.1-4.7.6-5.9.9-1.2.4-2.4.8-3.5 1.4-2.2 1.1-4.3 2.7-5.7 4.9-1.4.9-2.7 2.1-3.7 3.4-.5.7-1 1.4-1.4 2.3-.3.8-.7 1.4-1.1 2.2-.8 1.4-1.6 2.9-2.2 4.6-.5 1.4-.8 3.1-.6 4.7-.4.2-.7.5-1.1.8-.3.2-.5.4-.8.7-.1.1-.2.3-.4.4-.1.1-.1.2-.2.3v.1l-.1.1c-.1.1-.2.1-.3.2-.2.1-.5.2-.8.4-.5.2-1.1.5-1.7.7-2.3.9-4.6 1.7-6.8 2.7-1.1.5-2.3 1-3.4 1.6-1.1.6-2.2 1.4-3.1 2.2-.9.8-1.8 1.7-2.6 2.7-.8.9-1.5 1.9-2.1 3.1-.9 1.1-1.7 2.3-2.4 3.5-.4.6-.7 1.3-1 2-.3.7-.5 1.5-.6 2.2-.5 2.8-.9 5.6-1.2 8.5s-.5 5.7-.6 8.5c0 2.9 0 5.7.6 8.5h.2c-.4-2.8-.3-5.6-.1-8.5.2-2.8.5-5.6.9-8.4.4-2.8.9-5.6 1.4-8.4.1-.7.3-1.3.5-1.9.3-.6.6-1.2 1-1.8.7-1.2 1.5-2.3 2.4-3.4l.1-.1v-.1c.5-.9 1.2-1.9 2-2.8.8-.9 1.6-1.7 2.5-2.5 1.7-1.6 3.9-2.6 6.1-3.5 2.2-.9 4.5-1.8 6.8-2.6.6-.2 1.2-.4 1.7-.7.1 0 .2-.1.2-.1-.4.8-.8 1.6-1.1 2.4-.4 1.3-.7 2.7-.3 4.2.3.8.7 1.3 1.2 1.8s1 1 1.5 1.4c1.1.9 2.2 1.6 3.3 2.3 2.3 1.4 4.7 2.6 7.1 3.7 1.2.5 2.4 1.1 3.7 1.5 1.3.4 2.7.7 4 .9 2.7.4 5.3.5 8 .6 2.7.1 5.3.1 7.9.1 1.3 0 2.6.1 3.9.2l3.9.4c.6.1 1.2.1 1.7.2-2.1 2.1-4.3 5.2-5.4 9.6-1.4 6 .7 7.6 1.7 8 .3.1.7.2 1.1.2 1.4 0 2.9-1 3.8-2.6.7-1.2 1.4-3.5 2-6.1 0 7 .7 12.8.8 13.2.1.5.5.9 1 .9h.1c.6-.1.9-.6.9-1.1 0-.1-1.1-9.2-.6-18.3 1.5 6.3 3.9 15.4 6.7 18.8.3.4 1 .5 1.4.1s.5-1 .1-1.4c-2.9-3.5-5.6-14.9-6.9-20.7.1 0 .1-.1.2-.1 2.2 3.6 3.5 8.3 4.4 11.7.5 1.8.8 3.2 1.2 4.1.7 1.6 2.4 2.6 4.1 2.6.5 0 1.1-.1 1.5-.3 1-.4 4-2.3 1.2-9.2-2-4.9-5.4-8.3-8.4-10.5.3-.1.7-.3 1.1-.4 1.9-.6 3.9-1.3 5.8-1.4.4 0 1.1-.1 1.6-.2l1.5-.3c1-.2 2-.5 3-.8 2-.6 3.9-1.3 5.8-2 3.8-1.5 7.6-3.2 11.2-5.2 1.8-1 3.6-2.3 4.9-4 .6-.9 1.2-1.8 1.5-2.8.2-.6.4-1.2.4-1.8.1.1.2.1.3.2.3.1.6.3.9.4.6.2 1.2.5 1.7.7 2.3.9 4.6 1.7 6.8 2.6 2.2.9 4.4 1.9 6.1 3.5.9.8 1.7 1.6 2.5 2.5.8.9 1.5 1.9 2 2.8v.1l.1.1c.9 1 1.7 2.2 2.4 3.3.4.6.7 1.2.9 1.8.3.6.4 1.2.6 1.9.5 2.8 1 5.6 1.4 8.4.4 2.8.7 5.6.9 8.4.2 2.8.2 5.7-.1 8.5h.2c1.1-2.9 1.2-5.8 1.2-8.6zm-49.2-48c-.1-.3-.1-.7-.2-1-.2-.8-.2-1.4-.3-2.1-.1-1.4-.1-2.9-.1-4.4 0-1.5.1-2.9.3-4.4 0-.2.1-.5.1-.7.7 1 1.2 2.1 1.5 3.2.3 1.4.4 2.8.3 4.2-.1 1.4-.4 2.8-.9 4.1-.2.4-.5.8-.7 1.1zm-46.2-2.9c-.1.7-.2 1.4-.6 2.1-.1.1-.1.3-.2.4-.2-.6-.3-1.2-.4-1.7-.2-1.1-.4-2.2-.4-3.3-.1-1.1 0-2.1.4-3.1.3-.8.7-1.6 1.4-2.4.1 1.2.2 2.4.1 3.6-.1 1.4-.1 2.9-.3 4.4zm19.7 48.6c-.7 1.2-1.8 1.7-2.4 1.5-.8-.3-1.3-2.2-.5-5.7 1.2-4.8 4-8 6.1-9.8h.3c-.8 4.8-2.3 12-3.5 14zm4.6-17.4c-.2.1-1.5.8-3.1 2.3-.8-.1-1.7-.3-2.5-.4-2.6-.4-5.2-1-7.9-1.1-5.3-.4-10.6-.4-15.6-1.2-1.3-.2-2.5-.5-3.7-.8-1.2-.4-2.4-.9-3.6-1.4-2.4-1-4.8-2.1-7.1-3.3-1.2-.6-2.2-1.3-3.3-2-1-.7-2.1-1.5-2.6-2.5-.4-1.1-.3-2.4 0-3.6.2-1 .5-1.9 1-2.9 0 0 .1-.1.2-.1.2-.1.3-.2.5-.3.2-.1.3-.2.6-.5l.2-.3s0-.1.1-.1c0-.1.1-.2.2-.3.2-.2.4-.4.6-.5s.5-.3.7-.5v1.3c.1.8.4 1.6.7 2.4.7 1.5 1.7 2.9 2.7 4.2 1.1 1.2 2.3 2.4 3.6 3.4.7.5 1.3 1 2 1.5.7.4 1.4.9 2.1 1.3-1.2-1.2-2.4-2.3-3.5-3.4-1.2-1.1-2.3-2.3-3.3-3.5-1-1.2-2-2.5-2.8-3.9-.4-.7-.7-1.4-1-2.2-.1-.4-.2-.9-.3-1.3.2-.1.3-.2.4-.3.3-.2.5-.6.4-1-.3-1.4-.2-2.9.3-4.4.5-1.5 1.3-2.9 2.1-4.4.4-.7.8-1.5 1.1-2.3.3-.7.7-1.4 1.1-2 .4-.6.9-1.1 1.4-1.7-.7 1.5-1 3.1-1 4.8.1 2.6 1.3 5 2.6 7.1 1.3 2.2 2.7 4.3 4.4 6.2 1.7 1.9 3.8 3.5 6 4.8 2.2 1.3 4.6 2.2 6.9 3.1 2.4.9 4.8 1.7 7.2 2.4 2.4.8 4.8 1.5 7 2.7 2 1 3.8 2.3 5.4 3.9 0 .5-.1.6-.2.8zm13.5 13.3c1.4 3.4 1.3 6-.2 6.6-1.1.4-2.6-.2-3.1-1.2-.3-.8-.7-2.2-1.2-3.9-.9-3.4-2.1-8-4.3-11.8 2.9 1.8 6.7 5.2 8.8 10.3zm27.5-26.3c-1.3 1.4-3 2.4-4.8 3.3-3.6 1.8-7.4 3.3-11.2 4.8l-5.7 2.3c-.9.4-1.9.7-2.8 1.1-.5.2-.9.3-1.4.4-.5.1-.9.2-1.4.3-2.1.4-4 1.1-5.9 1.8l-1.5.6c-2.3-1.6-4.3-2.3-4.8-2.3-.2 0-.3.1-.5.1h-.2c-.2 0-.4.1-.6.2-1.5-1.6-3.3-3.1-5.2-4.2-2.2-1.3-4.6-2.1-7-3-4.7-1.7-9.5-3.2-13.8-5.7-2.1-1.2-4.1-2.7-5.8-4.5-1.7-1.8-3.1-3.9-4.4-6-.7-1.1-1.3-2.1-1.8-3.2s-.8-2.3-1-3.5c-.2-1.7.1-3.5.8-5.1.5-.4 1-.9 1.5-1.2h.1l.2-.2c1.2-2 3-3.6 5.1-4.7 1.1-.6 2.2-1 3.3-1.4 1-.3 2-.6 3-.7.2 1.3.3 2.6.4 4v.6c-1 .4-1.9 1.2-2.5 2.1-.7 1.1-1.1 2.4-1.1 3.7-.1 1.3.1 2.5.3 3.7.3 1.2.7 2.4 1.3 3.5.1.4.2.8.4 1.2.2.4.5.9.7 1.3.3.4.6.8 1 1.1l.9.6c.8.9 1.6 1.7 2.4 2.4 1.1.9 2.2 1.7 3.3 2.6 1.1.9 2.1 1.8 3.2 2.8 1.1.9 2.2 1.9 3.3 2.7 1.2.8 2.5 1.5 3.7 2.1 2.4 1.2 4.6 3.1 6.4 5.1.1.1.2.2.4.2.3 0 .6-.2.6-.5.1-1.1.7-2.3 1.4-3.2.7-1 1.8-1.7 2.8-2.5 2-1.6 4.2-3 6.4-4.5 1.1-.7 2.2-1.5 3.2-2.3.3-.2.7-.5 1-.7l1-.6c.8-.5 1.6-1 2.3-1.7.7-.6 1.4-1.3 2-2.1.3-.4.6-.8.8-1.3.1-.2.2-.5.3-.8 0-.1.1-.3.1-.4l.6-.6c.3-.3.6-.6.8-1 .5-.7.9-1.4 1.2-2.2.6-1.5.8-3.1.7-4.7 0-1.6-.3-3.1-.9-4.6-.5-1.2-1.3-2.3-2.3-3.1l.3-2.4 2.1.6c1 .4 2 .9 3 1.4 1.9 1.1 3.5 2.6 4.6 4.4l.3.3c.2.1.4.3.6.5 0 1.6-.2 3.1-.7 4.6-.6 1.9-1.6 3.7-2.8 5.2-2.5 3.1-5.7 5.6-9.2 7.6-.9.5-1.8.9-2.7 1.3-.9.4-1.9.9-2.8 1.4-1.8 1-3.6 2-5.2 3.2s-3.3 2.4-4.8 3.8c-.8.7-1.5 1.4-2.1 2.2-.6.8-1.3 1.6-1.5 2.6.3-1 1.1-1.7 1.7-2.5.7-.7 1.5-1.4 2.3-2 1.6-1.3 3.2-2.4 4.9-3.5 1.7-1.1 3.4-2.1 5.2-3 .9-.5 1.8-.9 2.7-1.3.9-.4 1.9-.8 2.8-1.3 1.8-1 3.5-2.2 5.1-3.5 1.6-1.3 3-2.8 4.3-4.4 2.2-2.9 3.4-6.6 3.1-10.2.9.7 1.8 1.6 2.5 2.6.4.6.9 1.3 1.1 1.9.3.8.7 1.6 1.1 2.3.8 1.5 1.6 2.9 2.1 4.3s.7 2.9.4 4.3c-.1.3 0 .6.2.9-1.1.9-2.2 1.7-3.4 2.4-1.4.9-3 1.7-4.6 2.3-1.6.6-3.2 1.1-4.9 1.6l-4.9 1.4c-1.7.5-3.3 1-4.9 1.6-.8.3-1.6.7-2.4 1.2-.4.2-.8.5-1.1.8-.3.3-.6.6-.9.8-2.7 2.1-5.8 3.6-8.4 5.9.3-.3.7-.5 1.1-.7l1.1-.6 2.3-1.2c1.5-.9 3-1.7 4.4-2.7.4-.2.7-.5 1.1-.8.3-.3.6-.5 1-.7.7-.4 1.5-.7 2.3-1 1.6-.6 3.2-1.1 4.9-1.6l4.9-1.5c1.6-.5 3.3-1 4.9-1.8 2.9-1.3 5.5-3.1 7.7-5.3l.2.2c.5.2 1 .6 1.4.9.2.2.4.3.6.5l.2.2.1.1.2.3c.2.3.4.4.5.5-.3 1.2-1.2 2.7-2.3 3.8zM42 203.8c-.7-2.5-1.7-5-2.9-7.3s-2.5-4.6-4.1-6.6c.9 2.5 1.8 4.9 2.6 7.3.9 2.4 1.7 4.8 2.4 7.2.3 1.2.6 2.4.9 3.7l.8 3.7c.5 2.5 1.1 5 1.7 7.5.2-2.6.1-5.2-.2-7.8-.1-2.6-.5-5.1-1.2-7.7zm117.5-7.6c-.7 1.1-1.2 2.3-1.7 3.5-.5 1.2-.8 2.4-1.1 3.7-.5 2.5-.7 5-.8 7.5 0 2.5.1 5 .5 7.5.4-2.5.7-4.9 1-7.4.4-2.4.7-4.9 1.2-7.2.5-2.4 1.1-4.6 2.2-6.8 1-2.1 2.4-4.2 4.1-6-2.2 1.1-4 3.1-5.4 5.2z" fill="#a60000" stroke-width="none" opacity="1" stroke="none"></path><path id="SvgjsPath11191" d="M107.5 181.3c6.7-4 15.6-7.9 20-14.8 3.2-5 3.7-12.1-1-16.2-.3-.2-.8.1-.5.4 10.5 14.7-10.3 22.7-18.8 30.1-.3.2 0 .6.3.5zm30.2-23.2c-.1-.5-1-.5-1 0-1.4 8.9-6.9 13.3-14.7 17.2-5.8 2.8-11.3 5.4-15.1 10.8-.3.5.4 1.1.8.6 6.5-6.6 15.7-8.5 22.9-14 4.4-3.3 8.5-8.8 7.1-14.6zm-57 16.5c-8.2-5.3-14.7-16.3-5.2-24 .6-.5-.2-1.2-.7-.9-8 3.7-7.1 14-2.6 20.1 6.7 9 18.7 11.6 27.6 17.5.2.1.3-.1.2-.2-5.5-5.8-12.8-8.3-19.3-12.5zm15.8 15.5c-6.5-3.6-14.1-4.6-20.6-8.6-7-4.3-11.7-10.2-13.7-18.2-.1-.4-.7-.3-.6.1.4 7.5 5.4 14.1 11.2 18.5 6.3 4.7 15.6 8.9 23.5 9.4.5 0 .8-.9.2-1.2zm47.1-16.2c-6.3 8.2-15.4 10.1-25 12.1-.4.1-.2.6.2.5 9.3-1.2 20.3-3.6 25.5-12.3.2-.3-.4-.6-.7-.3zm26 24.6c-.5-3.4-.7-8.6-4.2-10.2v-.4c-2.4-6.2-11.4-11.6-18-11.3-.6 0-.7.9-.1 1.1 3.2 1.3 6.4 2.1 9.4 4 2.7 1.8 4.5 4.2 6.7 6.4-8.5 4.9-12.6 16.1-9.5 25.4.1.4.9.4.8-.1-1.2-10.3 2-17.9 9.7-24.3 5.9 7 3.7 19.7 4.8 28.2.1.6 1 .8 1.1.1.9-6.2.2-12.7-.7-18.9zM46.7 177.6c-5.3.9-9.7 5.4-11.9 10.1-.2.5.4.9.7.4 2.9-4.6 6.9-7.1 11.4-9.9.3-.2.1-.6-.2-.6zM33 191.9c-2.4 6.3-3.5 13.7-3.3 20.4 0 .5.8.5.8 0 .8-6.9 1.7-13.5 2.9-20.3.1-.3-.3-.4-.4-.1z" fill="#d41f1f" stroke-width="none" opacity="1" stroke="none"></path></g><g id="svga-group-head" transform="matrix(1,0,0,1,0,0)"><g id="svga-group-ears-left-move" transform="matrix(1,0,0,1,0,0)"><g id="svga-group-ears-left"><path id="SvgjsPath10986" d="M64 93.7s-2.3-2.2-5-3.3-5.7.7-6.6 3.4 1.2 14 4.7 18.1 5.8 4.4 8.1 2.3c2.3-2 6.4-9.9-1.2-20.5z" fill="#f3d4cf" stroke-width="none" opacity="1" stroke="none"></path><path id="SvgjsPath10987" d="M65.2 95.3c.4.6.7 1.2 1.1 1.8.4.6.7 1.3 1 1.9.3.7.6 1.3.8 2 .2.7.5 1.4.6 2.2.1.4.1.8.2 1.1l.1 1.2c0 1.6-.2 3.1-.6 4.6-.5 1.5-1.1 2.8-2.1 3.9-.2.3-.5.5-.7.8-.3.2-.5.4-.8.6-.6.4-1.2.7-1.9.7-.7.1-1.4 0-2-.3s-1.2-.7-1.7-1.1-1-.9-1.5-1.5c-.5-.5-.9-1.1-1.3-1.7-1.5-2.5-2.4-5.3-3.2-8.1-.4-1.4-.7-2.8-1-4.3s-.5-2.9-.4-4.5c0-.4.1-.8.2-1.3.1-.2.1-.4.2-.6l.3-.5c.4-.7.9-1.2 1.4-1.7 1.1-.9 2.4-1.3 3.7-1.1.6.1 1.3.3 1.8.6.6.3 1.1.6 1.7 1 1.1.7 2.1 1.5 3.1 2.4l1 1.9zm-4.4-3.8c-.6-.3-1.1-.5-1.7-.7-.6-.2-1.1-.3-1.7-.3-1.1.1-2.2.5-3.1 1.3-.4.4-.8.8-1.1 1.4-.1.3-.3.5-.4.8-.1.3-.2.5-.2.9-.2 1.3-.1 2.8.1 4.2.2 1.4.4 2.9.7 4.3.7 2.8 1.7 5.6 3.3 7.7.8 1 1.8 1.9 2.7 2.7 1 .7 2.1 1.2 3.1 1 .5-.1 1-.3 1.5-.6s.9-.7 1.3-1.2c.7-1 1.4-2.1 1.7-3.4.4-1.3.6-2.6.7-4 0-1.4-.1-2.8-.4-4.2-.6-2.8-1.8-5.4-3.4-7.6-.9-1-2-1.7-3.1-2.3z" fill="#e4b3ab" stroke-width="none" opacity="1" stroke="none"></path><path id="SvgjsPath10988" d="M55.9 93.3c3 .5 5 5.7 5.6 9.2.1.1.1.2.2.3.3.5-.4 1.1-.7.6-.4-.7-1-1.5-1.7-1.8-1.3-.5-2 1-1.7 2.5.4 1.7 1.5 2.8 2.5 4.1.1.1 0 .3-.1.2-1.6-1-4-4.5-2.9-6.7.8-1.6 2.1-1.3 3.2-.4-.7-2-1.3-4-2.8-5.5-.5-.5-1.4-1.3-2.1-1.2-1.2.2-1.2 2-1.3 3.1-.1 1.5.1 3.1.3 4.7 0 .2-.2.2-.2.1-.6-2.4-1.8-9.8 1.7-9.2z" fill="#d4958a" stroke-width="none" opacity="1" stroke="none"></path></g></g><g id="svga-group-ears-right-move" transform="matrix(1,0,0,1,0,0)"><g id="svga-group-ears-right"><path id="SvgjsPath10989" d="M136 93.7s2.3-2.2 5-3.3 5.7.7 6.6 3.4-1.2 14-4.7 18.1-5.8 4.4-8.1 2.3c-2.3-2-6.4-9.9 1.2-20.5z" fill="#f3d4cf" stroke-width="none" opacity="1" stroke="none"></path><path id="SvgjsPath10990" d="M136 93.6c1-.9 2-1.7 3.1-2.4.5-.4 1.1-.7 1.7-1 .6-.3 1.2-.5 1.8-.6 1.3-.1 2.6.2 3.7 1.1.5.4 1 1 1.4 1.7l.3.5c.1.2.1.4.2.6.1.4.2.9.2 1.3.1 1.6-.2 3.1-.4 4.5-.3 1.5-.6 2.9-1 4.3-.8 2.8-1.7 5.6-3.2 8.1-.4.6-.8 1.1-1.3 1.7-.4.5-.9 1-1.5 1.5-.5.4-1.1.8-1.7 1.1-.6.3-1.3.4-2 .3s-1.3-.4-1.9-.7c-.3-.2-.6-.4-.8-.6-.3-.2-.5-.5-.7-.8-.9-1.1-1.6-2.5-2.1-3.9-.4-1.5-.7-3-.6-4.6l.1-1.2c0-.4.1-.8.2-1.1.1-.8.4-1.5.6-2.2.3-.7.5-1.4.8-2s.6-1.3 1-1.9.7-1.2 1.1-1.8l1-1.9zm0 .1c-1.6 2.2-2.8 4.9-3.4 7.6-.3 1.4-.4 2.8-.4 4.2 0 1.4.2 2.7.7 4 .4 1.3 1 2.4 1.7 3.4.4.5.8.9 1.3 1.2.5.3.9.6 1.5.6 1 .2 2.1-.3 3.1-1 1-.8 1.9-1.7 2.7-2.7 1.6-2.1 2.6-4.9 3.3-7.7.4-1.4.6-2.8.7-4.3.2-1.4.2-2.9.1-4.2 0-.3-.1-.6-.2-.9-.1-.3-.2-.6-.4-.8-.3-.5-.7-1-1.1-1.4-.9-.7-1.9-1.2-3.1-1.3-.6 0-1.1.1-1.7.3-.6.2-1.1.4-1.7.7-1 .7-2.1 1.4-3.1 2.3z" fill="#e4b3ab" stroke-width="none" opacity="1" stroke="none"></path><path id="SvgjsPath10991" d="M144.1 93.3c-3 .5-5 5.7-5.6 9.2-.1.1-.1.2-.2.3-.3.5.4 1.1.7.6.4-.7 1-1.5 1.7-1.8 1.3-.5 2 1 1.7 2.5-.4 1.7-1.5 2.8-2.5 4.1-.1.1 0 .3.1.2 1.6-1 4-4.5 2.9-6.7-.8-1.6-2.1-1.3-3.2-.4.7-2 1.3-4 2.8-5.5.5-.5 1.4-1.3 2.1-1.2 1.2.2 1.2 2 1.3 3.1.1 1.5-.1 3.1-.3 4.7 0 .2.2.2.2.1.6-2.4 1.8-9.8-1.7-9.2z" fill="#d4958a" stroke-width="none" opacity="1" stroke="none"></path></g></g><g id="svga-group-faceshape-wrap"><g id="svga-group-faceshape-single"><path id="SvgjsPath11018" d="M100 41.3c-21.4 0-39.8 15.6-41 44.1 0 0 .4 19.8 1.5 26.6 1.1 6.8 1.9 18.7 5.7 23.3 3.7 4.6 9.16 7.31 13.16 10.01 4 2.6 11.45 11.55 15.05 11.55 2.4 0 2.82-.87 5.42-.87 2.7 0 3.46.79 5.86.79 3.6 0 10.7-9.11 14.7-11.81 4-2.6 9.71-5.06 13.41-9.66s4.6-16.5 5.7-23.3c1.1-6.8 1.5-26.6 1.5-26.6C139.8 57 121.4 41.3 100 41.3z" fill="#f3d4cf" stroke-width="none" opacity="1" stroke="none"></path><path id="SvgjsPath11019" d="M100 41.3c-21.4 0-39.8 15.6-41 44.1 0 0 .4 19.8 1.5 26.6 1.1 6.8 1.9 18.7 5.7 23.3 3.7 4.6 9.3 7.6 13.3 10.3s11.5 11.6 15.1 11.6c2.4 0 2.8-.8 5.4-.8s3 .8 5.4.8c3.6 0 11.1-8.9 15.1-11.6s9.6-5.7 13.3-10.3 4.6-16.5 5.7-23.3c1.1-6.8 1.5-26.6 1.5-26.6-1.2-28.4-19.6-44.1-41-44.1zm28.8 14.14.7 1c.2.3.5.7.7 1s.5.7.7 1l.6 1c.1.2.2.3.3.5l.3.5c1.6 2.81 2.8 5.72 3.8 8.83l.7 2.31c.2.8.4 1.5.6 2.31.2.8.3 1.61.5 2.31.1.8.3 1.61.4 2.41l.1 1.2c0 .4.2 2.41.2 2.41 0 .4.1.8.1 1.2l.1 2.31-.1 2.51c-.1 3.31-.3 6.62-.5 9.93s-.4 6.62-.6 9.83c-.1.8-.4 3.91-.4 3.91l-.1.9c-.2 1.71-.4 3.31-.6 5.02-.4 3.31-.8 6.52-1.5 9.63-.4 1.5-.8 3.01-1.3 4.41-.5 1.48-1.6 2.61-1.6 2.61l-.4.4s-2.7 2.61-3.9 3.51c-1.2 1-2.5 1.91-3.9 2.81s-2.7 1.81-4.2 2.81c-.2.1-.4.3-.6.4-.2.1-1.3 1-1.6 1.3-.7.6-1.3 1.2-1.9 1.81l-3.6 3.51c-1.2 1.1-2.3 2.31-3.6 3.21-.6.5-1.09.93-1.69 1.33-.3.2-.98.41-1.58.41-.7 0-1.42-.14-2.32-.34-.4-.1-2.3-.2-2.8-.2s-.9 0-1.4.1-.9.2-1.4.3c-.9.3-2.64.86-4 .2-.7-.3-1.3-.7-2-1.2-1.3-.9-2.6-2.01-3.8-3.11l-3.7-3.31c-.6-.6-1.3-1.1-1.9-1.61-.7-.5-1.3-1.1-2.1-1.5-1.4-.9-2.8-1.81-4.2-2.71-2.8-1.81-5.4-3.71-7.6-6.12l-.4-.4-.4-.5c-.3-.3-.5-.6-.7-.9-.4-.6-.8-1.3-1.1-2.11-.6-1.5-1-3.01-1.3-4.61-.6-3.21-1-6.52-1.3-9.83-.2-1.71-.3-3.31-.5-5.02l-.1-.6c0-.2-.1-.4-.1-.6l-.1-1.2c-.1-.8-.1-1.61-.2-2.41-.2-3.31-.2-6.62-.3-9.93V88.15l-.1-2.61.1-2.21c0-.4.1-.8.1-1.2l.1-1.2c0-.4.1-.8.1-1.2l.2-1.2c.1-.8.3-1.61.4-2.41.1-.8.3-1.61.5-2.31.2-.8.4-1.5.6-2.31l.7-2.31c1-3.01 2.2-6.02 3.8-8.83l.3-.5c.1-.2.2-.3.3-.5 0 0 1.1-1.71 1.3-2.01.2-.3.5-.7.7-1l1.5-2.01.8-.9.8-.9c.5-.6 1.2-1.1 1.7-1.71.3-.3.6-.5.9-.8s.6-.5.9-.8c.6-.5 1.3-1 2-1.4.3-.2.7-.5 1-.7l1-.6c.3-.2.7-.4 1.1-.6s.7-.4 1.1-.6l1.1-.5 1.2-.5 2.3-.9 2.4-.7c1.6-.4 3.2-.7 4.9-.9a40.28 40.28 0 0 1 9.8 0c1.6.2 3.3.5 4.9.9l1.2.3c.2.1.4.1.6.2l.6.2 1.2.4 1.1.5.6.2.6.3 1.1.5c.4.2.7.4 1.1.6.4.2.7.4 1.1.6l1 .6c.3.2.7.5 1 .7.7.4 1.3 1 2 1.4.3.2.6.5.9.8s.6.5.9.8c.6.6 1.2 1.1 1.7 1.71l.8.9.8.9.4.5c.19.3.29.5.39.6z" fill="#c5796d" stroke-width="none" opacity="1" stroke="none"></path></g></g><g id="svga-group-mouth-single-move" transform="matrix(1,0,0,1,0,0)"><g id="svga-group-mouth-single"><path id="SvgjsPath10976" d="M95.2 133.6c3.7 1.9 5.4 1.5 7.2 1.3s6.2-2.5 9-5.2c2.7-2.7 3.2-4.2 3.2-4.2-2.5-.5-9.6-2.6-10.7-2.4-.8.1-2.9 1.9-3.6 1.9s-3.1-1.5-3.9-1.6c-.9-.1-2.3.4-4.4 1.1s-6 1.1-6 1.1 5.5 6.1 9.2 8z" fill="#da7c87" stroke-width="none" opacity="1" transform="translate(0 3)" stroke="none"></path><path id="SvgjsPath10977" d="M85.5 125.7c4.9 1.2 10.2 2.1 15.2 2.3 1.8.1 3.7-.3 5.5-.6 3-.5 6.3-.8 9.2-1.8.3-.1.3-.7-.1-.6-4.8.6-9.7 2.4-14.6 2.2-5.1-.2-10.1-1.4-15.2-1.9-.2.1-.2.4 0 .4z" fill="#cb5f6c" stroke-width="none" opacity="1" transform="translate(0 3)" stroke="none"></path></g></g><g id="svga-group-eyes-left-move" transform="matrix(1,0,0,1,0,0)"><g id="svga-group-eyes-left"><g id="svga-group-eyesback-left"><path id="SvgjsPath11105" d="M91.7 99.7s-3.6 1.3-5.4 1.5-4.8.3-8.2-.1-5.6-1.1-5.6-1.1 1.3-3 4-5c2.8-1.9 6.2-2.4 9-1.6 2.7.8 4.9 3.3 5.3 4.5l.9 1.8z" fill="#ffffff" stroke-width="none" opacity="1"></path></g><g id="svga-group-eyesiriswrapper-left" transform="matrix(1,0,0,1,0,0)"><g id="svga-group-eyesiriscontrol-left" transform="matrix(1,0,0,1,0,0)"><g id="svga-group-eyesiris-left"><path id="SvgjsPath11053" d="M82 91.5c2.7 0 4.9 2.2 4.9 4.9s-2.2 4.9-4.9 4.9-4.9-2.2-4.9-4.9 2.2-4.9 4.9-4.9z" fill="#31374c" stroke-width="none" opacity="1"></path><path id="SvgjsPath11054" d="M82 91.8c2.6 0 4.6 2.1 4.6 4.6 0 2.6-2.1 4.6-4.6 4.6-2.6 0-4.6-2.1-4.6-4.6-.1-2.5 2-4.6 4.6-4.6m0-.5c-2.8 0-5.2 2.3-5.2 5.2s2.3 5.2 5.2 5.2 5.2-2.3 5.2-5.2-2.4-5.2-5.2-5.2z" fill="#141a2d" stroke-width="none" opacity="1"></path><path id="SvgjsPath11055" d="M84.4 92.1c-.1.3-.3.6-.5.9s-.4.6-.6.8c.1-.3.3-.6.5-.9.2-.2.4-.5.6-.8zm.7.6c-.2.3-.4.6-.6.8-.2.3-.4.5-.7.7.2-.3.4-.6.6-.8.3-.2.5-.5.7-.7zm-.8 1.9.6-.6c.2-.2.4-.4.7-.5l-.6.6c-.2.2-.4.4-.7.5zm.3.6c.3-.2.6-.3.8-.4.3-.1.6-.2.9-.2-.3.2-.6.3-.8.4-.3 0-.6.1-.9.2zm.2.5c.3-.1.6-.2.8-.2.3-.1.6-.1.9-.1-.3.1-.6.2-.8.2-.3.1-.5.1-.9.1zm.1.6c.1 0 .3 0 .4-.1h.4c.3 0 .6.1.8.2h-.9c-.1 0-.3 0-.4-.1 0 .1-.1.1-.3 0zm-.1.6c.3 0 .6.1.9.1s.6.2.8.3c-.3 0-.6-.1-.9-.1-.2-.1-.5-.2-.8-.3zm0 .7c.1 0 .3.1.4.1.1.1.2.1.4.2s.5.3.7.5c-.3-.1-.5-.2-.8-.3-.1-.1-.2-.1-.4-.2-.1-.2-.2-.2-.3-.3zm-.5.7c.3.1.5.2.7.4.2.2.4.3.6.5-.3-.1-.5-.2-.7-.4-.2-.1-.4-.3-.6-.5zm-.9-6.5c0 .3-.1.6-.2.9l-.3.9c0-.3.1-.6.2-.9l.3-.9zm-1.2 1.7c-.1-.3 0-.6 0-.9s.1-.6.2-.9c.1.3 0 .6 0 .9 0 .2-.1.6-.2.9zm-1-1.9c.1.3.2.6.2.9s.1.6.1.9l-.3-.9c0-.2-.1-.3-.1-.5.1-.1.1-.2.1-.4zm-1.1.4c.2.3.3.6.4.9s.2.6.2.9c-.2-.3-.3-.6-.4-.9s-.2-.6-.2-.9zm-.8.5c.2.2.4.5.6.8s.3.6.5.9c-.2-.2-.4-.5-.6-.8-.2-.3-.4-.6-.5-.9zm-1 .8.9.6c.3.2.6.5.8.8l-.9-.6-.8-.8zm-.3.9c.3.1.5.2.7.3.2.1.4.3.6.5-.3-.1-.5-.2-.7-.3-.2-.1-.4-.3-.6-.5zm-.4 1c.2 0 .5 0 .7.1s.4.1.7.3c-.2 0-.5 0-.7-.1s-.5-.1-.7-.3zm-.2 1.1c.3-.1.5-.1.8-.1s.5 0 .8.1c-.3.1-.5.1-.8.1s-.5 0-.8-.1zm.1.9c.2-.1.5-.2.7-.2.2-.1.5-.1.8-.1-.2.1-.5.2-.7.2-.3.1-.5.1-.8.1zm.1.8c.3-.2.5-.2.8-.3s.6-.2.9-.2c-.3.2-.5.2-.8.3-.3.1-.6.2-.9.2zm.4.9c.2-.2.5-.3.7-.4s.5-.2.8-.3c-.2.2-.5.3-.7.4-.2.1-.5.2-.8.3zm.8.8c.1-.2.3-.4.4-.6.2-.2.3-.3.6-.5-.1.2-.3.4-.4.6s-.4.4-.6.5zm.8.8c.1-.3.2-.6.4-.9.2-.3.3-.6.5-.8-.1.3-.2.6-.4.9-.1.3-.3.5-.5.8zm1.1.3c0-.3 0-.5.1-.8s.1-.5.3-.7c0 .3 0 .5-.1.8-.1.3-.1.5-.3.7zm2.5-1.6c.1.2.2.5.3.7s.1.5.2.8c-.1-.2-.2-.5-.3-.7-.1-.3-.2-.6-.2-.8zm.7-.3.5.5c.1.2.3.4.3.6l-.5-.5-.3-.6zm-1.4.5c.1.2.1.5.2.7v.7c-.1-.2-.1-.5-.2-.7v-.7zm-.6.1c.1.2.1.5.1.7s0 .5-.1.7c-.1-.2-.1-.5-.1-.7s0-.5.1-.7z" fill="#141a2d" stroke-width="none" opacity="1"></path><path id="SvgjsPath11056" d="M82 93.6c1.5 0 2.8 1.3 2.8 2.8s-1.3 2.8-2.8 2.8-2.8-1.3-2.8-2.8 1.3-2.8 2.8-2.8z" fill="#000000" stroke-width="none" opacity="1"></path><path id="SvgjsPath11057" d="m81.3 94.2-.6-.6c-.2-.2-.4-.3-.7-.3-.2 0-.5.1-.7.3-.2.2-.3.4-.3.7s.1.5.3.7l.6.6c.2.2.4.3.7.3.2 0 .5-.1.7-.3.4-.4.4-1 0-1.4zm2.6 4.7c.9 0 .9-1.4 0-1.4s-.9 1.4 0 1.4z" fill="#ffffff" stroke-width="none" opacity="1"></path></g></g></g><g id="svga-group-eyesfront-left"><path id="SvgjsPath11113" d="M70.7 98c0 6.9 4.9 12.5 11 12.5s11-5.6 11-12.5-4.9-12.5-11-12.5-11 5.6-11 12.5zm1.9 1.9s1.3-3 4-5c2.8-1.9 6.2-2.4 9-1.6 2.7.8 4.9 3.3 5.3 4.5.5 1.2.8 1.8.8 1.8s-3.6 1.3-5.4 1.5-4.8.3-8.2-.1c-3.3-.3-5.5-1.1-5.5-1.1z" fill="#f3d4cf" stroke-width="none" opacity="1" stroke="none"></path><path id="SvgjsPath11114" d="M92.5 99.2c-1.7-4-4.8-7.2-9.3-7.8-4.8-.6-9.3 2.5-11.2 6.8 0 .1-.2 0-.2-.1 1.8-4.4 6.3-7.3 11.1-7 4.4.3 8.8 3.6 9.6 8.1.1 0 .1 0 0 0z" fill="#e4b3ab" stroke-width="none" opacity="1" stroke="none"></path><path id="SvgjsPath11115" d="M69.6 98.6c.9 0 1.8.1 2.7.2.3-.5.6-.9.9-1.4-.9-.4-1.7-.9-2.4-1.5-.1-.1 0-.3.1-.2.9.3 1.8.8 2.6 1.3.3-.4.6-.8 1-1.1-.7-.5-1.4-1-1.9-1.7-.1-.1 0-.3.2-.2.7.4 1.4 1 2 1.6.5-.4.9-.8 1.5-1.2-.6-.7-1.1-1.4-1.7-2.1-.1-.1.1-.3.2-.2.7.6 1.3 1.3 1.8 2.1.3-.2.7-.4 1.1-.6-.3-.5-.6-1-.9-1.6-.1-.2.1-.3.2-.2.5.4.8 1 1 1.6.5-.2.9-.4 1.4-.5-.2-.6-.4-1.1-.5-1.7 0-.2.1-.4.2-.2.2.6.4 1.2.5 1.9.5-.2 1.1-.3 1.7-.3-.1-.5-.2-1-.2-1.5 0-.2.2-.2.3 0 .2.5.2 1 .2 1.5.4 0 .7-.1 1.1-.1 4.9-.1 8 2.8 9.5 7.3.1.3-.3.3-.4.1-1.7-4.4-5.2-6.9-10-6.3-3.9.4-6.8 2.8-8.5 6.1 5.7 1.3 12.6 1.9 18.2.1.1 0 .1.1 0 .2-3 1.2-5.6 1.8-8.8 1.7H82c0 .2.1.3.1.5 0 .1-.2.1-.3 0-.1-.2-.1-.4-.1-.5-.5 0-.9 0-1.4-.1 0 .2 0 .4-.1.6 0 .1-.2.1-.2 0 0-.2 0-.4.1-.6-.5 0-1-.1-1.5-.1-.1.3-.2.6-.4.9-.1.1-.3.1-.3-.1 0-.3 0-.6.1-.8-.4 0-.8-.1-1.2-.1 0 .1-.1.3-.1.4-.1.2-.2.5-.3.6-.1.1-.3 0-.3-.1 0-.3.1-.5.2-.8 0-.1.1-.2.1-.3-.5-.1-.9-.1-1.4-.2-.1.1-.2.3-.3.4-.2.2-.4.5-.6.7-.1.1-.3 0-.2-.1.1-.3.3-.6.5-.8.1-.1.1-.2.2-.3-.8-.1-1.6-.3-2.3-.5-.4-.1-.5-.5-.3-.8.1-.2.2-.3.3-.5-.9 0-1.8-.1-2.5-.4-.4.2-.4-.1-.2-.1z" fill="#000000" stroke-width="none" opacity="1" stroke="none"></path></g></g></g><g id="svga-group-eyes-right-move" transform="matrix(1,0,0,1,0,0)"><g id="svga-group-eyes-right"><g id="svga-group-eyesback-right"><path id="SvgjsPath11106" d="M108.3 99.7s3.6 1.3 5.4 1.5 4.8.3 8.2-.1 5.6-1.1 5.6-1.1-1.3-3-4-5c-2.8-1.9-6.2-2.4-9-1.6-2.7.8-4.9 3.3-5.3 4.5l-.9 1.8z" fill="#ffffff" stroke-width="none" opacity="1"></path></g><g id="svga-group-eyesiriswrapper-right" transform="matrix(1,0,0,1,0,0)"><g id="svga-group-eyesiriscontrol-right" transform="matrix(1,0,0,1,0,0)"><g id="svga-group-eyesiris-right"><path id="SvgjsPath11058" d="M118 91.5c2.7 0 4.9 2.2 4.9 4.9s-2.2 4.9-4.9 4.9-4.9-2.2-4.9-4.9 2.2-4.9 4.9-4.9z" fill="#31374c" stroke-width="none" opacity="1"></path><path id="SvgjsPath11059" d="M118 91.8c2.6 0 4.6 2.1 4.6 4.6 0 2.6-2.1 4.6-4.6 4.6-2.6 0-4.6-2.1-4.6-4.6s2.1-4.6 4.6-4.6m0-.5c-2.8 0-5.2 2.3-5.2 5.2s2.3 5.2 5.2 5.2 5.2-2.3 5.2-5.2-2.3-5.2-5.2-5.2z" fill="#141a2d" stroke-width="none" opacity="1"></path><path id="SvgjsPath11060" d="M120.5 92.1c-.1.3-.3.6-.5.9s-.4.6-.6.8c.1-.3.3-.6.5-.9.2-.2.3-.5.6-.8zm.7.6c-.2.3-.4.6-.6.8-.2.3-.4.5-.7.7.2-.3.4-.6.6-.8.2-.2.4-.5.7-.7zm-.9 1.9.6-.6c.2-.2.4-.4.7-.5l-.6.6c-.2.2-.4.4-.7.5zm.3.6c.3-.2.6-.3.8-.4.3-.1.6-.2.9-.2-.3.2-.6.3-.8.4-.3 0-.6.1-.9.2zm.3.5c.3-.1.6-.2.8-.2.3-.1.6-.1.9-.1-.3.1-.6.2-.8.2-.3.1-.6.1-.9.1zm.1.6c.1 0 .3 0 .4-.1h.4c.3 0 .6.1.8.2h-.9c-.1 0-.3 0-.4-.1 0 .1-.2.1-.3 0zm-.2.6c.3 0 .6.1.9.1s.6.2.8.3c-.3 0-.6-.1-.9-.1-.2-.1-.5-.2-.8-.3zm0 .7c.1 0 .3.1.4.1.1.1.2.1.4.2s.5.3.7.5c-.3-.1-.5-.2-.8-.3-.1-.1-.2-.1-.4-.2 0-.2-.2-.2-.3-.3zm-.4.7c.3.1.5.2.7.4.2.2.4.3.6.5-.3-.1-.5-.2-.7-.4-.3-.1-.5-.3-.6-.5zm-.9-6.5c0 .3-.1.6-.2.9l-.3.9c0-.3.1-.6.2-.9 0-.3.1-.6.3-.9zm-1.2 1.7c-.1-.3 0-.6 0-.9s.1-.6.2-.9c.1.3 0 .6 0 .9-.1.2-.1.6-.2.9zm-1.1-1.9c.1.3.2.6.2.9s.1.6.1.9l-.3-.9c0-.2-.1-.3-.1-.5.1-.1.1-.2.1-.4zm-1 .4c.2.3.3.6.4.9s.2.6.2.9c-.2-.3-.3-.6-.4-.9-.1-.3-.2-.6-.2-.9zm-.9.5c.2.2.4.5.6.8s.3.6.5.9c-.2-.2-.4-.5-.6-.8-.2-.3-.4-.6-.5-.9zm-.9.8.9.6c.3.2.6.5.8.8l-.9-.6c-.3-.3-.6-.5-.8-.8zm-.3.9c.3.1.5.2.7.3.2.1.4.3.6.5-.3-.1-.5-.2-.7-.3-.2-.1-.4-.3-.6-.5zm-.4 1c.2 0 .5 0 .7.1s.4.1.7.3c-.2 0-.5 0-.7-.1-.3-.1-.5-.1-.7-.3zm-.2 1.1c.3-.1.5-.1.8-.1s.5 0 .8.1c-.3.1-.5.1-.8.1s-.6 0-.8-.1zm.1.9c.2-.1.5-.2.7-.2.2-.1.5-.1.8-.1-.2.1-.5.2-.7.2-.3.1-.6.1-.8.1zm0 .8c.3-.2.5-.2.8-.3s.6-.2.9-.2c-.3.2-.5.2-.8.3-.3.1-.6.2-.9.2zm.5.9c.2-.2.5-.3.7-.4s.5-.2.8-.3c-.2.2-.5.3-.7.4-.3.1-.5.2-.8.3zm.7.8c.1-.2.3-.4.4-.6.2-.2.3-.3.6-.5-.1.2-.3.4-.4.6-.2.2-.3.4-.6.5zm.9.8c.1-.3.2-.6.4-.9.2-.3.3-.6.5-.8-.1.3-.2.6-.4.9-.1.3-.3.5-.5.8zm1.1.3c0-.3 0-.5.1-.8s.1-.5.3-.7c0 .3 0 .5-.1.8-.1.3-.2.5-.3.7zm2.5-1.6c.1.2.2.5.3.7s.1.5.2.8c-.1-.2-.2-.5-.3-.7-.1-.3-.2-.6-.2-.8zm.7-.3.5.5c.1.2.3.4.3.6l-.5-.5-.3-.6zm-1.4.5c.1.2.1.5.2.7v.7c-.1-.2-.1-.5-.2-.7s-.1-.4 0-.7zm-.7.1c.1.2.1.5.1.7s0 .5-.1.7c-.1-.2-.1-.5-.1-.7s0-.5.1-.7z" fill="#141a2d" stroke-width="none" opacity="1"></path><path id="SvgjsPath11061" d="M118 93.6c1.5 0 2.8 1.3 2.8 2.8s-1.3 2.8-2.8 2.8-2.8-1.3-2.8-2.8 1.3-2.8 2.8-2.8z" fill="#000000" stroke-width="none" opacity="1"></path><path id="SvgjsPath11062" d="m117.3 94.2-.6-.6c-.2-.2-.4-.3-.7-.3-.2 0-.5.1-.7.3-.2.2-.3.4-.3.7s.1.5.3.7l.6.6c.2.2.4.3.7.3.2 0 .5-.1.7-.3.4-.4.4-1 0-1.4zm2.6 4.7c.9 0 .9-1.4 0-1.4s-.9 1.4 0 1.4z" fill="#ffffff" stroke-width="none" opacity="1"></path></g></g></g><g id="svga-group-eyesfront-right"><path id="SvgjsPath11116" d="M118.3 85.5c-6.1 0-11 5.6-11 12.5s4.9 12.5 11 12.5 11-5.6 11-12.5-5-12.5-11-12.5zm3.5 15.6c-3.4.4-6.4.2-8.2.1s-5.4-1.5-5.4-1.5.4-.6.8-1.8c.5-1.2 2.6-3.7 5.3-4.5 2.7-.8 6.2-.4 9 1.6 2.8 1.9 4 5 4 5s-2.1.7-5.5 1.1z" fill="#f3d4cf" stroke-width="none" opacity="1" stroke="none"></path><path id="SvgjsPath11119" d="M107.5 99.2c1.7-4 4.8-7.2 9.3-7.8 4.8-.6 9.3 2.5 11.2 6.8 0 .1.2 0 .2-.1-1.8-4.4-6.3-7.3-11.1-7-4.4.3-8.8 3.6-9.6 8.1-.1 0-.1 0 0 0z" fill="#e4b3ab" stroke-width="none" opacity="1" stroke="none"></path><path id="SvgjsPath11120" d="M130.4 98.6c-.9 0-1.8.1-2.7.2-.3-.5-.6-.9-.9-1.4.9-.4 1.7-.9 2.4-1.5.1-.1 0-.3-.1-.2-.9.3-1.8.8-2.6 1.3-.3-.4-.6-.8-1-1.1.7-.5 1.4-1 1.9-1.7.1-.1 0-.3-.2-.2-.7.4-1.4 1-2 1.6-.5-.4-.9-.8-1.5-1.2.6-.7 1.1-1.4 1.7-2.1.1-.1-.1-.3-.2-.2-.7.6-1.3 1.3-1.8 2.1-.3-.2-.7-.4-1.1-.6.3-.5.6-1 .9-1.6.1-.2-.1-.3-.2-.2-.5.4-.8 1-1 1.6-.5-.2-.9-.4-1.4-.5.2-.6.4-1.1.5-1.7 0-.2-.1-.4-.2-.2-.2.6-.4 1.2-.5 1.9-.5-.2-1.1-.3-1.7-.3.1-.5.2-1 .2-1.5 0-.2-.2-.2-.3 0-.2.5-.2 1-.2 1.5-.4 0-.7-.1-1.1-.1-4.9-.1-8 2.8-9.5 7.3-.1.3.3.3.4.1 1.7-4.4 5.2-6.9 10-6.3 3.9.4 6.8 2.8 8.5 6.1-5.7 1.3-12.6 1.9-18.2.1-.1 0-.1.1 0 .2 3 1.2 5.6 1.8 8.8 1.7h.7c0 .2-.1.3-.1.5 0 .1.2.1.3 0 .1-.2.1-.4.1-.5.5 0 .9 0 1.4-.1 0 .2 0 .4.1.6 0 .1.2.1.2 0 0-.2 0-.4-.1-.6.5 0 1-.1 1.5-.1.1.3.2.6.4.9.1.1.3.1.3-.1 0-.3 0-.6-.1-.8.4 0 .8-.1 1.2-.1 0 .1.1.3.1.4.1.2.2.5.3.6.1.1.3 0 .3-.1 0-.3-.1-.5-.2-.8 0-.1-.1-.2-.1-.3.5-.1.9-.1 1.4-.2.1.1.2.3.3.4.2.2.4.5.6.7.1.1.3 0 .2-.1-.1-.3-.3-.6-.5-.8-.1-.1-.1-.2-.2-.3.8-.1 1.6-.3 2.3-.5.4-.1.5-.5.3-.8-.1-.2-.2-.3-.3-.5.9 0 1.8-.1 2.5-.4.4.2.4-.1.2-.1z" fill="#000000" stroke-width="none" opacity="1" stroke="none"></path></g></g></g><g id="svga-group-facehighlight-single"></g><g id="svga-group-eyebrows-left-move" transform="matrix(1,0,0,1,0,0)"><g id="svga-group-eyebrows-left-rotate" transform="matrix(1,1.7453292144864463e-9,-1.7453292144864463e-9,1,1.4812995630109071e-7,-1.3811903443183837e-7)"><g id="svga-group-eyebrows-left"><path id="SvgjsPath11165" d="m66.6 88.3.1-.1c.2-.3.5-.5.8-.7.3-.9 1.1-1.6 1.7-2.3.7-.8 1.3-1.6 2-2.3.4-.7.9-1.8 1.7-2 .1 0 .3 0 .3.2.1 0 .1-.1.2-.1h.3c1.8-.1 4.1.2 5.8.5 1.2 0 2.5.3 3.7.4 1.8.2 3.6 0 5.3.2.1 0 .2-.1.3-.1.1 0 .2-.1.2 0h.1c.2-.1.5 0 .5.2.2-.1.4-.2.7-.2.1 0 .2 0 .3.1.2-.1.4.1.3.2-.3.4-.6.9-1 1.3.5-.2 1.1-.4 1.6-.5.2-.2.3-.4.5-.7.2-.2.6 0 .5.3-.2.8-.7 1.5-1.2 2.2-.2.4-.4.7-.6 1.1-.3.4-.5 1-.9 1.3-.4.3-1 .4-1.6.2-1.8 0-4.3.1-5.9-.8-.3 0-.6-.1-.9-.2-1.1.4-2.4.1-3.6-.1-1.1-.1-2.3-.2-3.4-.5-.7.2-1.5.3-2.2.4-.4.1-1 .2-1.4.1l-.9.6c-.4.3-.9.6-1.4.7-.1 0-.1.1-.1.1-.4.3-.8.7-1.3.8-.1 0-.2-.1-.2-.2-.3 0-.3-.1-.3-.1z" fill="#2a232b" stroke-width="none" opacity="1"></path><path id="SvgjsPath11166" d="M72.6 81.4c3 .3 6.3 2.6 7.7 5 .1.1-.1.2-.2.1-1.1-1.1-2.2-2.2-3.6-3.1-1.3-.8-2.7-1.2-4.1-1.8 0 0 .1-.2.2-.2zm-3 3.6c.2-.1.5-.1.7-.1-.2 0-.3-.1-.5-.1s-.2-.3 0-.3c1.7-.4 3.5.6 4.8 1.3.1.1 0 .2-.1.2-.8-.3-1.5-.6-2.3-.8h-.1c.3.1.7.3.9.5.2.1 0 .3-.2.2-.5-.2-1.1-.4-1.7-.5-.5-.1-1.1 0-1.6-.1-.1 0-.1-.3.1-.3zm1.5-2.8c2.4-.2 5.7 1.9 6.9 3.8.1.1-.1.3-.2.2-1.1-.8-2-1.7-3.3-2.4-1.1-.6-2.4-.8-3.5-1.3-.1-.1 0-.3.1-.3zm7.9-.9c1.8 1.2 2.9 3.2 3.3 5.2.1.2-.3.3-.4.1-.6-2-1.8-3.4-3.1-5-.1-.2.1-.4.2-.3zm5.1 2.6c0-.2.2-.2.3 0 .4 1 .3 2.1-.1 3-.1.1-.2.1-.2-.1.2-1 .1-1.9 0-2.9zm3.3 3.3c1-.5 1.9-.9 2.7-1.7.7-.8 1.2-1.7 1.7-2.6 0-.1.2 0 .2.1-.7 1.8-2 4.3-4.4 4.4-.3 0-.3-.1-.2-.2z" fill="#3a353a" stroke-width="none" opacity="1"></path><path id="SvgjsPath11167" d="M65.5 89.1c-.1.1.1.2.2.2s.1.1.2 0c1-.2 1.9-.9 2.8-1.4 1-.6 2-1.1 2.9-1.7 5.8.6 11.6 1.3 17.4 1.5.2 0 .2-.3.1-.3-1.2-.2-2.3-.3-3.5-.5 1.9-.6 3.4-2.7 3.7-4.4 0-.2-.2-.3-.3-.1-.4.9-.9 1.8-1.6 2.6-.6.7-1.4 1.1-2.1 1.7-.1.1-.1.2 0 .3-.2 0-.4-.1-.6-.1.7-1.5.8-3.2.4-4.7 1.9.1 3.9.2 5.8-.1.2 0 .2-.3 0-.3-2-.3-4.1-.3-6.1-.4-.1-.1-.1-.1-.2 0-.7 0-1.4-.1-2.1-.1-3.1-.2-6.3-.5-9.4-.9-.2 0-.4.1-.5.3-.1-.1-.4-.2-.6 0-1.2 1.3-2.2 2.7-3.2 4.1-1.1 1.2-2.4 2.7-3.3 4.3zm8.6-8c0 .1 0 .2.1.2 1.3.7 2.7 1.4 3.9 2.4 1 .8 1.8 1.8 2.6 2.7-1.7-.2-3.4-.3-5.1-.5-1.4-1.2-3.1-2.1-5-2.2.8-.9 1.5-1.8 2.1-2.8v-.1c.1 0 .1.1.2.1.4.1.8.1 1.2.2zm7 5.3c-1.2-2.2-3.6-4.3-6.2-5.2 1.6.2 3.2.3 4.8.5.5.7 1.2 1.4 1.6 2.2.5.9.7 1.8 1 2.7-.4-.1-.8-.2-1.2-.2zm3.3.4c-.5-.1-1-.1-1.5-.2-.1-1.7-.9-3.7-2.3-4.9.4 0 .9.1 1.3.1.9.1 1.8.1 2.7.2.3 1.7.3 3.1-.2 4.8zm-16 .6c-.5.2-1 .5-1.5.7.8-.9 1.5-1.9 2.3-2.8.4-.5.8-.9 1.2-1.4 1.7.5 3.3 1 4.8 1.9-1.2-.1-2.4-.2-3.7-.3-.1 0-.2 0-.3.1-.4 0-.8 0-1.2.1-.4.1-.9.1-1.2.3-.1.1-.1.2 0 .3.4.1.8 0 1.3-.1.4-.1.7-.1 1.1-.2v.1c-1 .4-1.9.8-2.8 1.3zm21.2-3.7c-.2 0-.3-.2-.1-.4.5-.3 1-.5 1.5-.8.5-.3.9-.7 1.3-1.1.1-.1.2-.1.2-.1.1-.1.3 0 .3.1-.4 2.2-1.2 4.5-3 6.1-.2.2-.6-.1-.4-.3 1.2-1.6 2.2-3.1 2.8-4.9-.6.8-1.6 1.5-2.6 1.4z" fill="#1b141c" stroke-width="none" opacity="1"></path></g></g></g><g id="svga-group-eyebrows-right-move" transform="matrix(1,0,0,1,0,0)"><g id="svga-group-eyebrows-right-rotate" transform="matrix(1,1.7453292144864463e-9,-1.7453292144864463e-9,1,1.4756759014744603e-7,-2.10835779057561e-7)"><g id="svga-group-eyebrows-right"><path id="SvgjsPath11168" d="m133.4 88.3-.1-.1c-.2-.3-.5-.5-.8-.7-.3-.9-1.1-1.6-1.7-2.3-.6-.8-1.3-1.6-2-2.3-.4-.7-.9-1.8-1.7-2-.1 0-.3 0-.3.2-.1 0-.1-.1-.2-.1h-.3c-1.8-.1-4.1.2-5.8.5-1.2 0-2.5.3-3.7.4-1.8.2-3.6 0-5.3.2-.1 0-.2-.1-.3-.1-.1 0-.2-.1-.2 0h-.1c-.2-.1-.5 0-.5.2-.2-.1-.4-.2-.7-.2-.1 0-.2 0-.3.1-.2-.1-.4.1-.3.2.3.4.6.9 1 1.3-.5-.2-1.1-.4-1.6-.5-.2-.2-.3-.4-.5-.7-.2-.2-.6 0-.5.3.2.8.7 1.5 1.2 2.2.2.4.4.7.6 1.1.3.4.5 1 .9 1.3.4.3 1 .4 1.6.2 1.8 0 4.3.1 5.9-.8.3 0 .6-.1.9-.2 1.1.4 2.4.1 3.6-.1 1.1-.1 2.3-.2 3.4-.5.7.2 1.5.3 2.2.4.5.1 1 .2 1.5.1l.9.6c.4.3.9.6 1.4.7.1 0 .1.1.1.1.4.3.8.7 1.3.8.1 0 .2-.1.2-.2.2 0 .2-.1.2-.1z" fill="#2a232b" stroke-width="none" opacity="1"></path><path id="SvgjsPath11169" d="M127.4 81.4c-3 .3-6.3 2.6-7.7 5-.1.1.1.2.2.1 1.1-1.1 2.2-2.2 3.6-3.1 1.3-.8 2.7-1.2 4.1-1.8 0 0-.1-.2-.2-.2zm3 3.6c-.2-.1-.5-.1-.7-.1.2 0 .3-.1.5-.1s.2-.3 0-.3c-1.6-.4-3.5.6-4.8 1.3-.1.1 0 .2.1.2.8-.3 1.5-.6 2.3-.8h.1c-.3.1-.7.3-.9.5-.2.1 0 .3.2.2.5-.2 1.1-.4 1.7-.5.5-.1 1.1 0 1.6-.1.1 0 .1-.3-.1-.3zm-1.5-2.8c-2.4-.2-5.7 1.9-6.9 3.8-.1.1.1.3.2.2 1.1-.8 2-1.7 3.3-2.4 1.1-.6 2.4-.8 3.5-1.3.1-.1 0-.3-.1-.3zm-7.9-.9c-1.8 1.2-2.9 3.2-3.3 5.2-.1.2.3.3.4.1.6-2 1.8-3.4 3.1-5 .1-.2-.1-.4-.2-.3zm-5.1 2.6c0-.2-.2-.2-.3 0-.4 1-.3 2.1.1 3 .1.1.2.1.2-.1-.2-1-.1-1.9 0-2.9zm-3.3 3.3c-1-.5-1.9-.9-2.7-1.7-.7-.8-1.2-1.7-1.7-2.6 0-.1-.2 0-.2.1.7 1.8 2 4.3 4.4 4.4.3 0 .3-.1.2-.2z" fill="#3a353a" stroke-width="none" opacity="1"></path><path id="SvgjsPath11170" d="M131.1 84.5c-1.1-1.4-2.1-2.8-3.2-4.1-.2-.2-.4-.1-.6 0-.1-.2-.2-.3-.5-.3-3.1.4-6.2.7-9.4.9-.7.1-1.4.1-2.1.1-.1 0-.1-.1-.2 0-2.1.1-4.1.1-6.1.4-.2 0-.2.3 0 .3 1.9.3 3.8.2 5.8.1-.5 1.6-.3 3.3.4 4.7-.2 0-.4.1-.6.1.1-.1.1-.2 0-.3-.7-.6-1.5-1-2.1-1.7-.7-.8-1.2-1.7-1.6-2.6-.1-.2-.4-.1-.3.1.3 1.8 1.8 3.8 3.7 4.4-1.2.2-2.3.3-3.5.5-.2 0-.1.3.1.3 5.8-.2 11.6-.9 17.4-1.5 1 .6 1.9 1.2 2.9 1.7.9.5 1.8 1.2 2.8 1.4h.2c.1 0 .2-.1.2-.2-.8-1.3-2.1-2.8-3.3-4.3zm-4-3.6c.1 0 .1 0 .2-.1v.1c.6.9 1.4 1.8 2.1 2.8-1.9.2-3.7 1-5 2.2-1.7.2-3.4.3-5.1.5.8-1 1.6-1.9 2.6-2.7 1.2-1 2.5-1.6 3.9-2.4.1-.1.1-.1.1-.2.4-.1.8-.1 1.2-.2zm-9.4 5.6c.3-.9.5-1.8 1-2.7.4-.8 1.1-1.5 1.6-2.2 1.6-.1 3.2-.3 4.8-.5-2.6.9-5 3-6.2 5.2-.4.1-.8.2-1.2.2zm-2.3-4.5c.9-.1 1.8-.2 2.7-.2.4 0 .9-.1 1.3-.1-1.3 1.2-2.2 3.2-2.3 4.9-.5.1-1 .1-1.5.2-.5-1.7-.5-3.1-.2-4.8zm13.5 4c.4 0 .7.1 1.1.1.4.1.9.2 1.3.1.1 0 .1-.2 0-.3-.4-.2-.8-.2-1.2-.3-.4-.1-.8-.1-1.2-.1-.1-.1-.2-.1-.3-.1-1.2.1-2.4.2-3.7.3 1.5-.9 3.1-1.4 4.8-1.9.4.5.8.9 1.1 1.4.8.9 1.5 1.9 2.3 2.8-.5-.3-1-.5-1.5-.7-.9-.4-1.8-.8-2.7-1.3zm-18.5-2.3c.2 0 .3-.2.1-.4-.5-.3-1-.5-1.5-.8-.5-.3-.9-.7-1.3-1.1-.1-.1-.2-.1-.2-.1-.1-.1-.3 0-.3.1.4 2.2 1.2 4.5 3 6.1.2.2.6-.1.4-.3-1.2-1.6-2.2-3.1-2.8-4.9.6.8 1.6 1.5 2.6 1.4z" fill="#1b141c" stroke-width="none" opacity="1"></path></g></g></g><g id="svga-group-nose-single-move" transform="matrix(1,0,0,1,0,0)"><g id="svga-group-nose-single"><path id="SvgjsPath11151" d="M97.72 89.37c-.8 3.33-.91 6.89-1.27 10.29-.38 3.64-1.08 7.4-1.03 11.06 0 .29.45.37.52.07.74-3.34.83-6.91 1.18-10.31.37-3.64 1.05-7.41.93-11.06 0-.19-.28-.24-.33-.05z" fill="#c5796d" stroke-width="none" opacity="1" transform="translate(0 2)" stroke="none"></path><path id="SvgjsPath11152" d="M94.71 108.8c-.98 1.31-1.8 2.73-2.52 4.2-.46.95-1.04 2.07-.73 3.16.5 1.8 2.79 2.36 4.28 1.51.44-.26.24-.95-.26-.95-.87-.01-1.89.27-2.58-.47-.84-.89-.01-2.5.36-3.4.55-1.32 1.22-2.59 1.74-3.92.07-.19-.19-.26-.29-.13z" fill="#c5796d" stroke-width="none" opacity="1" transform="translate(0 2)" stroke="none"></path><path id="SvgjsPath11153" d="M94.57 116.21c2.7-.2 3.21 3.2 5.78 3.28 2.2.07 2.37-3.24 4.46-3.14.24.01.32-.33.12-.45-2.37-1.4-2.81 2.72-4.99 2.46-1.29-.15-2.21-2.05-3.37-2.6-.79-.37-1.36-.34-2.13.01-.19.11-.09.46.13.44z" fill="#c5796d" stroke-width="none" opacity="1" transform="translate(0 2)" stroke="none"></path><path id="SvgjsPath11154" d="M104.07 117.75c1.78.4 3.85-.15 4.27-2.13.21-.99-.12-1.97-.64-2.81-.84-1.37-1.93-2.53-2.73-3.95-.13-.24-.47-.12-.48.13-.1 1.59 1.08 2.69 1.92 3.92.78 1.13 1.45 2.69.14 3.81-.6.51-1.74.42-2.48.56-.24.05-.23.42 0 .47z" fill="#c5796d" stroke-width="none" opacity="1" transform="translate(0 2)" stroke="none"></path><path id="SvgjsPath11155" d="M102.32 112.41c-.39-.7-1.4-.81-1.96-.25-.05.05-.23.28-.28.34-.06.08-.19.25-.21.28-.06.1-.12.2-.17.3l-.11.26c0-.01-.01.01-.03.05-.06.06-.12.13-.17.19-.17.18-.34.36-.48.57-.4.63-.08 1.35.46 1.75.83.62 2.03.12 2.61-.58.7-.84.89-1.92.34-2.91z" fill="#fbe5e2" stroke-width="none" opacity="1" transform="translate(0 2)" stroke="none"></path></g></g><g id="svga-group-hair-front"><path id="SvgjsPath11233" d="M143.1 79.3c-.9 7.7-2.8 15-4.8 18.6 0 0-.3-14.3-3.7-21.1S121.2 62.2 120 56.5c0 0 1.5 3.3 3.8 4.7s10.3 7.6 12.2 9.7 5 7.3 6.3 8c.1.1.5.2.8.4zm-76.2 56.4c0 .6-.2 2.2-.5 4.5-.7-6.6-2.1-13.9-2.1-13.9s-30.2 44.5-26.2 59.2c4 14.7 12.1 24.9 12.9 25.7.8.8 4 1.9 5.4 4.5.5 1 10.5-8.8 5.6-20.6-4.8-11.8-5.9-19.8-1.9-26 .7-1.1 1.3-2.3 1.9-3.5-.8 4.3-1.5 7.7-1.7 8.7-.9 3.5-.9 8.5 1.5 14s6.1 5.8 6.1 5.8c-1.7-2.7-1.8-7.3-.2-12.1s4.2-9.5 5.6-14.5c1.5-5.2 2.2-11.4-2.7-21.7-2.7-6.1-3.7-10.1-3.7-10.1z" fill="#221b23" stroke-width="none" opacity="1" stroke="none"></path><path id="SvgjsPath11234" d="M120 56.5s-18.2 6.8-32.8 1.7-24 15.1-22.8 27.1 9.4 27.7 4.6 47.1c-4.8 19.4-18.8 34.2-22.8 42.8s-4 17.4 0 23.7 6 10.8 7.1 17.4c0 0-1.5-3.6-7.4-8-9.3-6.9-13.1-15.1-12.5-27.9s6.2-22.8 11.1-33.1c4.8-10.3 7.3-23.3 3.9-31.9-3.4-8.6-7.3-20.5-5.9-41.7 1.4-21.1 13.1-32.4 27.7-41s35.7-7 49.1 1.3 11.4 15.7 11.4 15.7 4-2 10 7.1 2 33.4-2.3 41.1c0 0-.3-14.3-3.7-21.1S121.2 62.2 120 56.5z" fill="#2a232b" stroke-width="none" opacity="1" stroke="none"></path><path id="SvgjsPath11235" d="M127.6 50.2c-2.3 1.5-4.7 1.5-6.1.8-4.1-1.8-7.4-8-10.8-11.7-5.7-6.2-7.2-9.4-20.3-10.1-9.3-.5-16.7 1.9-21 3.8-14.2 8.5-25.5 19.8-26.9 40.6-1.4 21.1 2.4 33.1 5.9 41.7s.9 21.6-3.9 31.9c-4.8 10.3-10.5 20.3-11.1 33.1s3.3 21 12.5 27.9c5.9 4.4 7.4 8 7.4 8-1.6-4.5-4-6.3-8.7-10.6-4.8-4.3-9.4-16.4-8.4-25.6s9.7-25 13.8-31.4c4.1-6.4 7.4-17.4 8.8-23.3 1.4-5.9.2-10.8-3.9-20.9s-6.3-36.5-5.6-41c1.1-8.3 3.1-14 9.4-20.6 9.4-9.8 21.6-11.3 28.9-11.4 11.8-.1 20 7.7 21.5 9.9s10.5 11.9 12.8 12.3c2.3.4 8-3.4 8-3.4l.7-.6s.3-1 0-2.6c-.5.9-1.5 2.2-3 3.2zM102.2 60c.3 0 .7 0 1-.1.2 0 .5 0 .8-.1.4 0 .9-.1 1.3-.1.2 0 .5-.1.8-.1.3 0 .7-.1 1-.1.3 0 .6-.1.9-.1.3 0 .6-.1.9-.1.2 0 .4-.1.6-.1.4-.1.8-.2 1.2-.2.2 0 .4-.1.6-.1.4-.1.8-.2 1.1-.2.2 0 .3-.1.4-.1.3-.1.6-.2.9-.2.1 0 .2 0 .3-.1.4-.1.8-.2 1.1-.3.1 0 .2 0 .3-.1.4-.1.7-.2 1.1-.3 2.2-.6 3.5-1.1 3.5-1.1s-5 .6-10.9-5.5c-2.3-3.7-6.1-10.5-12-12.8-6.8-2.7-29.5-3.9-37.2 12.5s-2.7 30.5.6 37.4c3.3 6.9 8.5 20.1 8.3 28.7-.2 8.7-2.3 21-4.6 26.4-2.3 5.4-17.6 24.4-20.8 33.3-3.3 9.3-4.4 15.6 3.5 28.3 3 4.9 5 6.3 5.8 8.1-1.2-5-3.1-9-6.5-14.2-4-6.3-4-15.1 0-23.7s18-23.4 22.8-42.8-3.4-35.1-4.6-47.1S72.7 52.9 87.2 58c1.9.7 3.9 1.1 5.8 1.4h.1c.2 0 .4.1.7.1.4 0 .8.1 1.2.1.3 0 .6 0 .8.1.4 0 .8.1 1.3.1h4.1c.3.3.7.3 1 .2z" fill="#221b23" stroke-width="none" opacity="1" stroke="none"></path><path id="SvgjsPath11236" d="M63.3 148.6s-2.6 6.6-9.3 14.7c-8.9 10.7-10.7 17.4-7.4 25.8 3.3 8.4 7.8 12.8 9.3 16.5s1.1 7.6 1.1 7.6 1.9-4.1 1.1-7.2c-.7-3.1-7.4-13.9-8.4-20s.1-12.9 4.2-18.7c3.5-4.9 7.6-11.6 9.4-18.7zm1.9 1.5s-2.5 11.6-6 17.4c-3.5 5.8-4.6 13-2 19.1 2.6 6.1 7.6 14.1 7.2 19.4 0 0 3.4-6.4.2-13s-4.3-16.4-1.7-23.1c2.6-6.6 2.9-15.2 2.3-19.8z" fill="#2a232b" stroke-width="none" opacity="1" stroke="none"></path><path id="SvgjsPath11237" d="M93.1 59.7c.3 0 .5.1.7.1.4 0 .8.1 1.2.1.3 0 .6 0 .8.1.4 0 .8.1 1.3.1h1.5c-2.4-1-5.2-2.6-7.6-5.4-4.8-5.9-8.5-8.6-16.2-7.8S59 58.1 59.5 69c.5 10.8 4 17.7 6.2 23.6-.6-2.6-1.1-5-1.3-7.3-1.1-12 8.3-32.2 22.8-27.1 2 .7 3.9 1.1 5.9 1.5z" fill="#1b141c" stroke-width="none" opacity="1" stroke="none"></path></g><g id="svga-group-glasses-single-move" transform="matrix(1,0,0,1,0,0)"><g id="svga-group-glasses-single"><path id="SvgjsPath11204" d="M83.9 89.9c5.9 0 10.7 4.8 10.7 10.7s-4.8 10.7-10.7 10.7-10.7-4.8-10.7-10.7S78 89.9 83.9 89.9z" fill="#ffffff" stroke-width="none" opacity="0.28"></path><path id="SvgjsPath11205" d="m77.6 105.2-.1-.2 12.6-11 .1.2-12.6 11zm3.9 4.6-.2-.2 9.8-8.5.2.2-9.8 8.5zm-6.5-8.4-.1-.2 9.8-8.5.1.2-9.8 8.5zm3.4-.5-.2-.2 9.9-8.5.1.2-9.8 8.5z" fill="#ffffff" stroke-width="none" opacity="0.67"></path><path id="SvgjsPath11206" d="M116.1 89.9c5.9 0 10.7 4.8 10.7 10.7s-4.8 10.7-10.7 10.7-10.7-4.8-10.7-10.7 4.8-10.7 10.7-10.7z" fill="#ffffff" stroke-width="none" opacity="0.28"></path><path id="SvgjsPath11207" d="m122.4 105.2.1-.2-12.6-11-.1.2 12.6 11zm-3.9 4.6.2-.2-9.8-8.5-.2.2 9.8 8.5zm6.5-8.4.1-.2-9.8-8.5-.1.2 9.8 8.5zm-3.4-.5.2-.2-9.9-8.5-.1.2 9.8 8.5z" fill="#ffffff" stroke-width="none" opacity="0.67"></path><path id="SvgjsPath11208" d="M104.9 100.6c0 6.2 5 11.2 11.2 11.2s11.2-5 11.2-11.2c0-.5 0-.9-.1-1.4l2 .1.1-2.8c-.9-.2-2.2-.1-2.8-.1-1.7-4.1-5.7-7-10.4-7-6.2 0-11.2 5-11.2 11.2zm1 0c0-5.6 4.6-10.2 10.2-10.2s10.2 4.6 10.2 10.2-4.6 10.2-10.2 10.2-10.2-4.6-10.2-10.2zm-22-11.2c-4.7 0-8.7 2.9-10.4 7-.6 0-1.9-.1-2.8.1l.1 2.8 2.1-.1c-.1.5-.1.9-.1 1.4 0 6.2 5 11.2 11.2 11.2s11.2-5 11.2-11.2-5.1-11.2-11.3-11.2zm0 21.4c-5.6 0-10.2-4.6-10.2-10.2s4.6-10.2 10.2-10.2 10.2 4.6 10.2 10.2-4.6 10.2-10.2 10.2z" fill="#ebce56" stroke-width="none" opacity="1"></path><path id="SvgjsPath11209" d="M83.9 89.4c-2.2 0-4.4.7-6.2 2-1.8 1.3-3.2 3.1-4 5.1l-.1.1h-.2c-.9 0-1.9 0-2.8.1l.2-.2.1 2.8-.2-.2H73v.2c-.3 2.2.1 4.5 1.1 6.5.5 1 1.2 1.9 2 2.7.8.8 1.7 1.4 2.7 2 2 1 4.3 1.4 6.5 1.1s4.3-1.2 5.9-2.7c.8-.7 1.5-1.6 2.1-2.5s1-2 1.3-3c.6-2.1.4-4.4-.3-6.5-.7-2.1-2.2-3.9-4-5.2-.9-.6-1.9-1.2-3-1.5-1.2-.6-2.3-.7-3.4-.8zm0 0c1.1 0 2.3.2 3.3.5 1.1.3 2.1.8 3.1 1.4 1.9 1.3 3.4 3.1 4.3 5.3.4 1.1.7 2.2.8 3.4.1 1.2 0 2.3-.3 3.4s-.7 2.2-1.3 3.2c-.6 1-1.3 1.9-2.2 2.6-1.7 1.5-3.9 2.5-6.2 2.7-2.3.2-4.6-.2-6.6-1.3-1-.6-1.9-1.2-2.7-2.1-.8-.8-1.5-1.7-2-2.7-1.1-2-1.5-4.3-1.3-6.6l.2.2-2.1.1h-.2v-.2l-.1-2.8v-.2h.2c1-.2 1.9-.1 2.9-.1l-.2.1c.8-2.1 2.4-3.9 4.3-5.1 1.6-1.2 3.9-1.8 6.1-1.8zm0 21.4c-2.7 0-5.4-1-7.3-2.9-2-1.9-3.1-4.6-3.1-7.3s1.2-5.4 3.1-7.3 4.6-3.1 7.3-3.1 5.4 1 7.4 3c2 1.9 3.1 4.6 3.1 7.4 0 2.7-1.2 5.5-3.1 7.3-2.1 1.9-4.7 3-7.4 2.9zm0 0c2.7 0 5.3-1.2 7.1-3.1 1.8-1.9 2.9-4.5 2.8-7.1s-1.1-5.2-2.9-7.1-4.4-3-7.1-3c-2.6 0-5.3 1-7.2 2.9-1.9 1.9-2.9 4.5-2.8 7.2 0 2.6 1.1 5.2 2.9 7.1 1.9 1.9 4.5 3.1 7.2 3.1zm21-10.2c0 3.1 1.4 6.1 3.6 8.1s5.2 3.1 8.2 2.9c3-.1 5.9-1.6 7.9-3.9s2.8-5.5 2.4-8.5V99H129.3l-.1.2v-2.8l.1.2c-.9-.1-1.9-.1-2.8-.1h-.2l-.1-.1c-1-2.3-2.7-4.3-5-5.5-2.2-1.2-4.8-1.6-7.3-1.2s-4.8 1.8-6.5 3.7c-1.5 2.1-2.4 4.6-2.5 7.2zm0 0c0-2.6.9-5.2 2.5-7.2s4-3.5 6.6-4 5.3-.1 7.7 1.2c2.3 1.3 4.1 3.4 5.1 5.8l-.2-.1c1 0 1.9 0 2.9.1h.2v.2l-.1 2.8v.2h-.1l-2.1-.1.1-.1c.4 3.1-.6 6.2-2.6 8.6-1.9 2.4-4.9 4-8 4.2s-6.3-.9-8.5-3.1c-2.3-2.4-3.5-5.4-3.5-8.5zm1 0c0-2.7 1-5.4 2.9-7.3 1.9-2 4.6-3.1 7.3-3.1s5.4 1.2 7.3 3.1 3.1 4.6 3.1 7.3-1 5.4-3 7.4c-1.9 2-4.6 3.1-7.4 3.1-2.7 0-5.5-1.2-7.3-3.1-1.9-2-2.9-4.7-2.9-7.4zm0 0c0 2.7 1.2 5.3 3.1 7.1 1.9 1.8 4.5 2.9 7.1 2.8s5.2-1.1 7.1-2.9 3-4.4 3-7.1c0-2.6-1-5.3-2.9-7.2-1.9-1.9-4.5-2.9-7.2-2.8-2.6 0-5.2 1.1-7.1 2.9-1.9 1.9-3.1 4.5-3.1 7.2z" fill="#ccab22" stroke-width="none" opacity="1"></path><path id="SvgjsPath11210" d="M93.5 99.5h13.1v1.4H93.5v-1.4z" fill="#ccab22" stroke-width="none" opacity="1"></path></g></g></g></g></g><rect id="svga-credit-rect" width="200" height="15" x="0" y="185" fill="#ecf0f1" opacity="0.5" style="display: none;"></rect><text id="svga-credit-text" font-family="Avenir Next, Roboto, Helvetica, Arial, sans-serif" font-size="10px" text-anchor="start" font-weight="400" size="10px" anchor="start" weight="400" fill="#333333" x="33.311859130859375" y="182.60824728012085" style="display: none;"><tspan id="SvgjsTspan10955" dy="13" x="33.311859130859375">Created on AvatarMaker.com</tspan></text></g><defs id="SvgjsDefs10907"></defs></svg>